<svg xmlns="http://www.w3.org/2000/svg" xmlns:inkscape="http://www.inkscape.org/namespaces/inkscape" width="297mm" height="190.09mm" viewBox="0 0 297 190.09">
<!-- text-dither plot | profile: single-pen | pen: 0.3 mm | page: 297x190.09 mm, margin 10 mm | bands: b1=(0,0.35] b2=(0.35,0.6] b3=(0.6,0.82] b4=(0.82,1] | glyphs: b1 71 / b2 34 / b3 27 / b4 30 -->
<g inkscape:groupmode="layer" inkscape:label="1-black-1pass" id="b1" stroke="#111111" stroke-width="0.3" fill="none" stroke-linecap="round" stroke-linejoin="round">
<path d="M109.39 68.64 L109.31 68.73 L109.4 68.8 L109.48 68.72 L109.39 68.64"/>
<path d="M121.37 67.25 L121.42 69.23"/>
<path d="M120.71 67.27 L122.03 67.23"/>
<path d="M126.9 67.4 L126.94 69.51"/>
<path d="M126.92 68.5 L127.22 68.2 L127.41 68.09 L127.71 68.09 L127.92 68.18 L128.02 68.48 L128.04 69.48"/>
<path d="M132.82 68.42 L134.08 68.39 L134.07 68.18 L133.96 67.97 L133.85 67.87 L133.64 67.77 L133.33 67.78 L133.12 67.89 L132.92 68.1 L132.82 68.42 L132.82 68.63 L132.94 68.94 L133.15 69.15 L133.36 69.25 L133.68 69.24 L133.89 69.13 L134.09 68.92"/>
<path d="M145.13 68.03 L145.21 69.57"/>
<path d="M145.17 68.69 L145.26 68.35 L145.47 68.12 L145.68 68 L146.01 67.99"/>
<path d="M151.37 67.88 L151.16 68 L150.95 68.23 L150.86 68.57 L150.87 68.79 L151 69.11 L151.24 69.32 L151.46 69.41 L151.79 69.39 L152 69.27 L152.21 69.04 L152.3 68.7 L152.29 68.48 L152.16 68.16 L151.92 67.95 L151.7 67.86 L151.37 67.88"/>
<path d="M158.18 68.23 L158.06 68.02 L157.73 67.92 L157.41 67.93 L157.09 68.04 L156.99 68.26 L157.1 68.48 L157.32 68.58 L157.86 68.67 L158.08 68.77 L158.2 68.99 L158.2 69.1 L158.1 69.32 L157.77 69.43 L157.45 69.44 L157.12 69.34 L157.01 69.13"/>
<path d="M162.93 68.57 L164.19 68.5 L164.18 68.29 L164.06 68.09 L163.95 67.99 L163.73 67.9 L163.42 67.91 L163.22 68.03 L163.02 68.25 L162.93 68.57 L162.94 68.78 L163.07 69.09 L163.29 69.29 L163.5 69.38 L163.82 69.36 L164.02 69.24 L164.22 69.02"/>
<path d="M175.42 67.31 L175.52 67.4 L175.61 67.3 L175.51 67.21 L175.42 67.31"/>
<path d="M175.56 67.96 L175.66 69.28"/>
<path d="M182.14 68.34 L182.04 68.17 L181.77 68.1 L181.51 68.11 L181.25 68.21 L181.17 68.39 L181.27 68.56 L181.45 68.64 L181.89 68.71 L182.07 68.79 L182.17 68.96 L182.17 69.05 L182.09 69.22 L181.83 69.32 L181.57 69.34 L181.3 69.26 L181.21 69.09"/>
<path d="M103.18 73.29 L103.28 73.39 L103.37 73.28 L103.27 73.19 L103.18 73.29"/>
<path d="M103.31 73.97 L103.38 75.34"/>
<path d="M109.3 73.25 L109.38 75.1 L109.5 75.42 L109.73 75.52 L109.94 75.51"/>
<path d="M109.01 74.02 L109.77 73.99"/>
<path d="M120.61 73.06 L120.63 75.8"/>
<path d="M120.62 74.37 L120.88 74.11 L121.14 73.97 L121.53 73.97 L121.79 74.1 L122.05 74.36 L122.19 74.75 L122.19 75.01 L122.06 75.4 L121.8 75.67 L121.54 75.8 L121.15 75.8 L120.89 75.67 L120.62 75.41"/>
<path d="M174.87 73.02 L175 75.76"/>
<path d="M174.94 74.46 L175.31 74.05 L175.57 73.9 L175.96 73.88 L176.22 74 L176.37 74.39 L176.44 75.69"/>
<path d="M180.91 74.75 L182.34 74.69 L182.33 74.45 L182.2 74.21 L182.08 74.1 L181.83 73.99 L181.47 74 L181.24 74.13 L181.01 74.38 L180.91 74.75 L180.92 74.99 L181.05 75.34 L181.3 75.57 L181.55 75.68 L181.9 75.67 L182.14 75.54 L182.37 75.29"/>
<path d="M193.36 73.91 L193.39 75.28"/>
<path d="M193.37 74.5 L193.46 74.2 L193.65 74 L193.84 73.9 L194.14 73.89"/>
<path d="M199.57 74.21 L199.41 74.31 L199.24 74.49 L199.17 74.76 L199.18 74.93 L199.28 75.19 L199.46 75.35 L199.64 75.43 L199.9 75.42 L200.07 75.32 L200.23 75.14 L200.31 74.87 L200.3 74.7 L200.2 74.44 L200.01 74.28 L199.84 74.2 L199.57 74.21"/>
<path d="M84.34 80.19 L84.4 81.35"/>
<path d="M84.35 80.52 L84.59 80.26 L84.75 80.17 L85 80.15 L85.17 80.23 L85.27 80.47 L85.31 81.3"/>
<path d="M85.27 80.47 L85.5 80.21 L85.66 80.12 L85.91 80.1 L86.08 80.18 L86.18 80.42 L86.23 81.25"/>
<path d="M91.85 80.25 L91.74 80.07 L91.45 80 L91.16 80.02 L90.88 80.13 L90.8 80.33 L90.91 80.51 L91.11 80.59 L91.59 80.65 L91.79 80.73 L91.9 80.92 L91.91 81.01 L91.83 81.21 L91.55 81.33 L91.26 81.35 L90.97 81.27 L90.86 81.09"/>
<path d="M102.55 78.99 L102.62 81.61"/>
<path d="M102.58 80.24 L102.83 79.98 L103.07 79.85 L103.45 79.84 L103.7 79.96 L103.95 80.21 L104.09 80.58 L104.09 80.83 L103.98 81.2 L103.74 81.46 L103.49 81.59 L103.12 81.6 L102.86 81.48 L102.61 81.24"/>
<path d="M192.28 80.09 L192.31 81.84"/>
<path d="M192.29 80.59 L192.66 80.21 L192.9 80.08 L193.28 80.07 L193.53 80.19 L193.66 80.56 L193.69 81.81"/>
<path d="M193.66 80.56 L194.03 80.18 L194.27 80.05 L194.65 80.04 L194.9 80.16 L195.03 80.53 L195.06 81.78"/>
<path d="M200.33 80.21 L200.22 80 L199.88 79.9 L199.56 79.91 L199.23 80.03 L199.13 80.26 L199.25 80.47 L199.47 80.57 L200.02 80.66 L200.24 80.76 L200.36 80.98 L200.36 81.09 L200.26 81.31 L199.94 81.43 L199.61 81.44 L199.28 81.34 L199.16 81.13"/>
<path d="M205.73 80.83 L205.64 80.93 L205.74 81.02 L205.83 80.92 L205.73 80.83"/>
<path d="M79.24 86.34 L79.16 86.43 L79.25 86.5 L79.32 86.42 L79.24 86.34"/>
<path d="M79.36 86.99 L79.28 87.08 L79.19 87 L79.27 86.92 L79.36 86.99 L79.37 87.16 L79.21 87.33"/>
<path d="M91.1 85.25 L91.22 85.36 L91.32 85.24 L91.21 85.13 L91.1 85.25"/>
<path d="M91.26 86.02 L91.35 87.58"/>
<path d="M97.31 85.09 L97.32 87.29 L97.45 87.68 L97.71 87.81 L97.96 87.81"/>
<path d="M96.93 86 L97.83 86"/>
<path d="M199.54 85.2 L199.67 85.33 L199.8 85.2 L199.67 85.07 L199.54 85.2"/>
<path d="M199.68 86.11 L199.69 87.92"/>
<path d="M205.64 85.28 L205.74 87.18 L205.86 87.51 L206.09 87.61 L206.32 87.59"/>
<path d="M205.34 86.08 L206.12 86.04"/>
<path d="M217.2 85.85 L217.3 87.58"/>
<path d="M217.25 86.67 L217.4 86.5 L217.56 86.41 L217.81 86.4 L217.98 86.47 L218.15 86.63 L218.25 86.87 L218.26 87.03 L218.19 87.28 L218.03 87.46 L217.87 87.55 L217.62 87.56 L217.46 87.49 L217.28 87.33"/>
<path d="M78.74 91.58 L78.87 93.42"/>
<path d="M78.81 92.55 L79.05 92.26 L79.22 92.17 L79.48 92.15 L79.66 92.22 L79.77 92.48 L79.83 93.36"/>
<path d="M85.15 92.38 L84.95 92.49 L84.75 92.71 L84.66 93.02 L84.67 93.23 L84.78 93.53 L85 93.73 L85.21 93.82 L85.52 93.81 L85.72 93.7 L85.92 93.49 L86.01 93.17 L86 92.97 L85.88 92.66 L85.67 92.46 L85.46 92.37 L85.15 92.38"/>
<path d="M90.68 92.09 L90.69 93.3 L90.82 93.66 L91.06 93.78 L91.43 93.78 L91.67 93.65 L92.03 93.29"/>
<path d="M92.01 92.07 L92.03 93.77"/>
<path d="M204.99 92.95 L206.44 92.86 L206.43 92.62 L206.29 92.39 L206.16 92.27 L205.91 92.16 L205.55 92.19 L205.32 92.32 L205.09 92.58 L204.99 92.95 L205 93.19 L205.14 93.54 L205.4 93.77 L205.65 93.88 L206.01 93.86 L206.25 93.72 L206.47 93.47"/>
<path d="M212.33 92.61 L212.11 92.42 L211.9 92.33 L211.59 92.35 L211.39 92.47 L211.2 92.69 L211.12 93.01 L211.13 93.21 L211.26 93.52 L211.48 93.71 L211.69 93.8 L212 93.77 L212.2 93.66 L212.39 93.44"/>
<path d="M218.25 92.34 L218.33 93.57"/>
<path d="M218.26 92.6 L218.08 92.44 L217.89 92.36 L217.63 92.38 L217.46 92.48 L217.3 92.67 L217.23 92.94 L217.24 93.11 L217.35 93.37 L217.54 93.53 L217.72 93.61 L217.98 93.59 L218.15 93.49 L218.31 93.3"/>
<path d="M78.73 98.87 L79.78 98.83 L79.77 98.65 L79.68 98.48 L79.59 98.4 L79.41 98.31 L79.14 98.33 L78.97 98.42 L78.8 98.6 L78.73 98.87 L78.73 99.05 L78.83 99.31 L79.01 99.47 L79.19 99.56 L79.46 99.54 L79.63 99.45 L79.8 99.27"/>
<path d="M91.16 97.2 L91.28 97.32 L91.4 97.2 L91.28 97.08 L91.16 97.2"/>
<path d="M91.29 98.05 L91.3 99.74"/>
<path d="M204.94 97.33 L205.01 99.88"/>
<path d="M204.97 98.55 L205.21 98.3 L205.45 98.17 L205.81 98.16 L206.06 98.27 L206.31 98.51 L206.44 98.87 L206.44 99.11 L206.33 99.48 L206.1 99.73 L205.86 99.86 L205.49 99.87 L205.25 99.75 L205 99.51"/>
<path d="M211.7 97.62 L211.75 99.79"/>
<path d="M217.63 98.47 L217.46 98.57 L217.3 98.76 L217.23 99.03 L217.24 99.2 L217.35 99.46 L217.54 99.62 L217.72 99.69 L217.99 99.67 L218.15 99.57 L218.32 99.38 L218.38 99.12 L218.37 98.94 L218.26 98.68 L218.07 98.52 L217.89 98.45 L217.63 98.47"/>
<path d="M85.22 103.83 L85.31 105.84"/>
<path d="M84.55 103.87 L85.89 103.8"/>
<path d="M90.68 103.58 L90.78 105.92"/>
<path d="M90.73 104.81 L91.05 104.46 L91.27 104.34 L91.61 104.32 L91.83 104.43 L91.96 104.76 L92 105.87"/>
<path d="M96.54 104.87 L98.09 104.87 L98.09 104.61 L97.96 104.36 L97.83 104.23 L97.57 104.1 L97.19 104.1 L96.93 104.23 L96.67 104.49 L96.54 104.87 L96.54 105.13 L96.67 105.52 L96.93 105.78 L97.19 105.91 L97.57 105.91 L97.83 105.78 L98.09 105.52"/>
<path d="M204.8 104.49 L205.3 106.03"/>
<path d="M205.69 104.46 L205.3 106.03"/>
<path d="M205.69 104.46 L206.19 106"/>
<path d="M206.58 104.43 L206.19 106"/>
<path d="M211.17 103.81 L211.31 105.81"/>
<path d="M211.24 104.86 L211.51 104.55 L211.69 104.44 L211.98 104.42 L212.18 104.51 L212.29 104.78 L212.36 105.74"/>
<path d="M217.23 104.64 L217.79 105.77"/>
<path d="M218.22 104.59 L217.79 105.77 L217.64 106.11 L217.49 106.28 L217.33 106.37 L217.24 106.38"/>
<path d="M84.69 110.12 L84.84 111.86"/>
<path d="M84.76 110.95 L84.91 110.77 L85.07 110.67 L85.32 110.65 L85.49 110.72 L85.67 110.87 L85.78 111.11 L85.79 111.28 L85.73 111.53 L85.58 111.71 L85.42 111.81 L85.17 111.83 L85 111.76 L84.82 111.61"/>
<path d="M91.24 109.67 L91.34 111.66"/>
<path d="M97.19 110.35 L96.97 110.47 L96.76 110.69 L96.66 111.03 L96.67 111.24 L96.79 111.57 L97.02 111.78 L97.24 111.88 L97.57 111.87 L97.78 111.75 L98 111.52 L98.09 111.19 L98.08 110.97 L97.96 110.65 L97.74 110.44 L97.51 110.34 L97.19 110.35"/>
<path d="M103.19 110.36 L102.94 110.5 L102.7 110.76 L102.59 111.14 L102.6 111.38 L102.74 111.75 L103 111.99 L103.26 112.11 L103.63 112.09 L103.87 111.96 L104.11 111.7 L104.22 111.32 L104.21 111.07 L104.07 110.7 L103.82 110.46 L103.56 110.35 L103.19 110.36"/>
<path d="M194.41 110.56 L194.28 110.31 L193.91 110.19 L193.53 110.19 L193.16 110.32 L193.04 110.57 L193.16 110.82 L193.41 110.94 L194.04 111.06 L194.29 111.19 L194.42 111.43 L194.42 111.56 L194.29 111.81 L193.92 111.94 L193.55 111.94 L193.17 111.82 L193.05 111.57"/>
<path d="M204.92 110.42 L205.38 111.72"/>
<path d="M205.68 110.37 L205.38 111.72"/>
<path d="M205.68 110.37 L206.14 111.68"/>
<path d="M206.44 110.32 L206.14 111.68"/>
<path d="M211.58 109.82 L211.66 109.89 L211.74 109.81 L211.65 109.73 L211.58 109.82"/>
<path d="M211.7 110.39 L211.78 111.55"/>
<path d="M97.83 116.93 L97.74 116.76 L97.47 116.69 L97.21 116.7 L96.95 116.8 L96.87 116.97 L96.97 117.14 L97.14 117.22 L97.58 117.29 L97.76 117.37 L97.86 117.54 L97.86 117.63 L97.78 117.81 L97.52 117.91 L97.26 117.92 L97 117.84 L96.9 117.67"/>
<path d="M102.76 117.1 L103.93 117.04 L103.92 116.85 L103.81 116.65 L103.71 116.56 L103.51 116.47 L103.22 116.49 L103.03 116.59 L102.84 116.8 L102.76 117.1 L102.76 117.29 L102.88 117.58 L103.08 117.76 L103.28 117.85 L103.57 117.84 L103.76 117.73 L103.95 117.53"/>
<path d="M115.23 115.45 L115.36 115.57 L115.47 115.44 L115.35 115.33 L115.23 115.45"/>
<path d="M115.37 116.29 L115.4 117.97"/>
<path d="M121.32 115.52 L121.43 117.74 L121.58 118.12 L121.85 118.24 L122.11 118.22"/>
<path d="M120.98 116.45 L121.89 116.41"/>
<path d="M181.6 115.49 L181.64 118.01"/>
<path d="M180.76 115.5 L182.44 115.47"/>
<path d="M187.05 115.87 L187.13 118.15"/>
<path d="M187.09 117.06 L187.41 116.73 L187.62 116.61 L187.95 116.6 L188.17 116.7 L188.29 117.02 L188.33 118.11"/>
<path d="M193.08 117.28 L194.25 117.23 L194.24 117.04 L194.14 116.85 L194.04 116.75 L193.84 116.67 L193.55 116.68 L193.35 116.78 L193.17 116.99 L193.08 117.28 L193.09 117.48 L193.2 117.77 L193.4 117.95 L193.6 118.04 L193.89 118.03 L194.09 117.93 L194.27 117.72"/>
<path d="M114.79 122.22 L114.9 124.07"/>
<path d="M114.84 123.1 L115.01 122.91 L115.18 122.82 L115.44 122.8 L115.62 122.88 L115.81 123.04 L115.91 123.3 L115.92 123.47 L115.85 123.74 L115.69 123.93 L115.52 124.03 L115.25 124.04 L115.07 123.97 L114.89 123.8"/>
<path d="M120.84 123.35 L121.97 123.27 L121.96 123.08 L121.85 122.9 L121.75 122.82 L121.56 122.74 L121.27 122.76 L121.09 122.86 L120.92 123.07 L120.84 123.35 L120.86 123.54 L120.97 123.82 L121.17 123.99 L121.37 124.07 L121.65 124.05 L121.83 123.95 L122.01 123.74"/>
<path d="M128.02 122.74 L127.81 122.55 L127.61 122.46 L127.31 122.47 L127.11 122.57 L126.92 122.78 L126.83 123.08 L126.83 123.28 L126.94 123.58 L127.15 123.77 L127.35 123.87 L127.65 123.86 L127.85 123.75 L128.04 123.54"/>
<path d="M134.05 122.64 L134.12 124.1"/>
<path d="M134.06 122.95 L133.84 122.75 L133.63 122.66 L133.31 122.67 L133.11 122.79 L132.91 123.01 L132.82 123.33 L132.83 123.54 L132.96 123.85 L133.18 124.05 L133.39 124.14 L133.7 124.12 L133.91 124.01 L134.11 123.79"/>
<path d="M138.9 122.65 L138.96 123.73 L139.08 124.05 L139.3 124.15 L139.63 124.13 L139.84 124.01 L140.14 123.67"/>
<path d="M140.09 122.59 L140.17 124.1"/>
<path d="M146.14 122.76 L146.02 122.55 L145.69 122.45 L145.36 122.46 L145.03 122.59 L144.93 122.81 L145.05 123.03 L145.27 123.13 L145.83 123.22 L146.05 123.32 L146.17 123.53 L146.17 123.64 L146.07 123.87 L145.75 123.99 L145.42 124 L145.08 123.91 L144.97 123.69"/>
<path d="M150.86 123.25 L152.17 123.21 L152.17 122.99 L152.05 122.77 L151.94 122.67 L151.71 122.56 L151.38 122.57 L151.17 122.69 L150.96 122.92 L150.86 123.25 L150.86 123.47 L150.98 123.8 L151.21 124.01 L151.43 124.11 L151.76 124.1 L151.98 123.99 L152.19 123.76"/>
<path d="M163.42 121.75 L163.53 121.85 L163.63 121.75 L163.53 121.65 L163.42 121.75"/>
<path d="M163.54 122.48 L163.57 123.95"/>
<path d="M169.51 121.87 L169.6 123.57 L169.72 123.86 L169.92 123.95 L170.12 123.94"/>
<path d="M169.25 122.59 L169.95 122.55"/>
<path d="M181.06 122.16 L181.12 124"/>
<path d="M181.09 123.03 L181.26 122.85 L181.43 122.76 L181.69 122.75 L181.87 122.83 L182.05 123 L182.15 123.26 L182.15 123.44 L182.08 123.71 L181.91 123.89 L181.73 123.98 L181.47 123.99 L181.29 123.91 L181.11 123.74"/>
<path d="M187.58 122.22 L187.68 123.93"/>
</g>
<g inkscape:groupmode="layer" inkscape:label="2-black-2pass" id="b2" stroke="#111111" stroke-width="0.3" fill="none" stroke-linecap="round" stroke-linejoin="round">
<path d="M127.34 72.7 L127.37 75.63"/>
<path d="M127.47 72.77 L127.5 75.71"/>
<path d="M133.21 73.62 L132.92 73.77 L132.64 74.07 L132.5 74.52 L132.51 74.81 L132.67 75.25 L132.97 75.54 L133.27 75.68 L133.71 75.67 L134 75.51 L134.29 75.21 L134.42 74.76 L134.42 74.47 L134.26 74.03 L133.96 73.74 L133.66 73.6 L133.21 73.62"/>
<path d="M133.34 73.69 L133.05 73.85 L132.77 74.15 L132.63 74.59 L132.64 74.89 L132.8 75.33 L133.1 75.61 L133.4 75.75 L133.84 75.74 L134.13 75.59 L134.42 75.29 L134.55 74.84 L134.55 74.54 L134.39 74.11 L134.09 73.82 L133.79 73.68 L133.34 73.69"/>
<path d="M139.26 73.6 L138.95 73.75 L138.64 74.05 L138.48 74.51 L138.48 74.81 L138.63 75.27 L138.93 75.58 L139.24 75.74 L139.7 75.74 L140 75.59 L140.31 75.29 L140.47 74.83 L140.47 74.52 L140.32 74.06 L140.02 73.76 L139.71 73.6 L139.26 73.6"/>
<path d="M139.39 73.67 L139.08 73.82 L138.77 74.13 L138.61 74.58 L138.61 74.89 L138.76 75.35 L139.06 75.66 L139.37 75.81 L139.83 75.82 L140.13 75.67 L140.44 75.36 L140.6 74.9 L140.6 74.6 L140.45 74.14 L140.15 73.83 L139.84 73.68 L139.39 73.67"/>
<path d="M143.72 73.74 L143.7 75.92"/>
<path d="M143.71 74.37 L144.18 73.9 L144.5 73.75 L144.96 73.75 L145.27 73.91 L145.43 74.38 L145.41 75.94"/>
<path d="M145.43 74.38 L145.9 73.92 L146.21 73.76 L146.68 73.77 L146.99 73.93 L147.14 74.4 L147.12 75.95"/>
<path d="M143.85 73.82 L143.83 76"/>
<path d="M143.84 74.44 L144.31 73.98 L144.63 73.82 L145.09 73.83 L145.4 73.99 L145.56 74.46 L145.54 76.01"/>
<path d="M145.56 74.46 L146.03 73.99 L146.34 73.84 L146.81 73.84 L147.12 74 L147.27 74.47 L147.25 76.03"/>
<path d="M152.38 74.17 L152.23 73.86 L151.76 73.7 L151.29 73.7 L150.83 73.85 L150.67 74.17 L150.82 74.48 L151.13 74.63 L151.91 74.79 L152.22 74.95 L152.38 75.26 L152.38 75.42 L152.22 75.73 L151.75 75.88 L151.28 75.88 L150.82 75.72 L150.66 75.41"/>
<path d="M152.51 74.25 L152.36 73.94 L151.89 73.78 L151.42 73.78 L150.96 73.93 L150.8 74.24 L150.95 74.55 L151.26 74.71 L152.04 74.87 L152.35 75.03 L152.51 75.34 L152.51 75.49 L152.35 75.8 L151.88 75.96 L151.41 75.96 L150.95 75.8 L150.79 75.49"/>
<path d="M157.47 75.01 L157.32 75.17 L157.48 75.32 L157.63 75.17 L157.47 75.01"/>
<path d="M157.6 75.09 L157.45 75.24 L157.61 75.39 L157.76 75.24 L157.6 75.09"/>
<path d="M169.44 72.85 L169.56 75.78"/>
<path d="M168.46 72.89 L170.42 72.81"/>
<path d="M169.57 72.92 L169.69 75.86"/>
<path d="M168.59 72.96 L170.55 72.88"/>
<path d="M108.45 80.82 L110.14 80.77 L110.13 80.49 L109.98 80.21 L109.84 80.07 L109.55 79.94 L109.13 79.95 L108.86 80.1 L108.58 80.39 L108.45 80.82 L108.46 81.1 L108.62 81.52 L108.91 81.79 L109.19 81.92 L109.61 81.91 L109.89 81.76 L110.16 81.47"/>
<path d="M108.58 80.89 L110.27 80.84 L110.26 80.56 L110.11 80.29 L109.97 80.15 L109.68 80.02 L109.26 80.03 L108.99 80.18 L108.71 80.47 L108.58 80.89 L108.59 81.17 L108.75 81.59 L109.04 81.86 L109.32 82 L109.74 81.98 L110.02 81.84 L110.29 81.55"/>
<path d="M116.25 80.34 L115.93 80.04 L115.61 79.89 L115.14 79.9 L114.83 80.06 L114.52 80.38 L114.38 80.86 L114.39 81.17 L114.56 81.64 L114.88 81.94 L115.2 82.09 L115.66 82.08 L115.97 81.91 L116.28 81.59"/>
<path d="M116.38 80.42 L116.06 80.11 L115.74 79.96 L115.27 79.97 L114.96 80.14 L114.65 80.46 L114.51 80.93 L114.52 81.25 L114.69 81.71 L115.01 82.02 L115.32 82.16 L115.79 82.15 L116.1 81.99 L116.41 81.67"/>
<path d="M122.37 79.62 L122.36 82.03"/>
<path d="M122.37 80.14 L122.03 79.79 L121.69 79.62 L121.17 79.61 L120.83 79.78 L120.48 80.13 L120.3 80.64 L120.3 80.98 L120.47 81.5 L120.81 81.85 L121.15 82.02 L121.67 82.02 L122.01 81.86 L122.36 81.51"/>
<path d="M122.5 79.7 L122.49 82.1"/>
<path d="M122.5 80.21 L122.16 79.87 L121.82 79.69 L121.3 79.69 L120.96 79.86 L120.61 80.2 L120.43 80.71 L120.43 81.06 L120.6 81.58 L120.94 81.92 L121.28 82.1 L121.8 82.1 L122.14 81.93 L122.49 81.59"/>
<path d="M175.56 78.36 L175.51 81.97"/>
<path d="M175.69 78.44 L175.64 82.05"/>
<path d="M181.4 79.71 L181.08 79.87 L180.77 80.18 L180.62 80.65 L180.62 80.96 L180.77 81.43 L181.09 81.74 L181.4 81.9 L181.87 81.9 L182.18 81.74 L182.49 81.43 L182.65 80.96 L182.65 80.65 L182.49 80.18 L182.18 79.86 L181.87 79.71 L181.4 79.71"/>
<path d="M181.53 79.78 L181.21 79.94 L180.9 80.25 L180.75 80.72 L180.75 81.04 L180.9 81.51 L181.22 81.82 L181.53 81.98 L182 81.97 L182.31 81.82 L182.62 81.51 L182.78 81.04 L182.78 80.72 L182.62 80.25 L182.31 79.94 L182 79.78 L181.53 79.78"/>
<path d="M187.42 79.85 L187.14 80 L186.87 80.28 L186.74 80.71 L186.74 80.99 L186.89 81.41 L187.18 81.68 L187.46 81.82 L187.89 81.81 L188.16 81.66 L188.44 81.37 L188.57 80.95 L188.56 80.67 L188.41 80.25 L188.13 79.97 L187.84 79.84 L187.42 79.85"/>
<path d="M187.55 79.92 L187.27 80.07 L187 80.36 L186.87 80.78 L186.87 81.07 L187.02 81.48 L187.31 81.76 L187.59 81.89 L188.02 81.88 L188.29 81.74 L188.57 81.45 L188.7 81.02 L188.69 80.74 L188.54 80.32 L188.26 80.05 L187.97 79.91 L187.55 79.92"/>
<path d="M108.33 84.54 L108.24 88.09"/>
<path d="M108.29 86.23 L108.63 85.9 L108.98 85.74 L109.48 85.75 L109.82 85.93 L110.15 86.28 L110.3 86.79 L110.3 87.13 L110.11 87.63 L109.77 87.96 L109.42 88.12 L108.92 88.11 L108.58 87.93 L108.25 87.58"/>
<path d="M108.46 84.61 L108.37 88.17"/>
<path d="M108.42 86.31 L108.76 85.98 L109.11 85.81 L109.61 85.83 L109.95 86 L110.28 86.35 L110.43 86.86 L110.43 87.2 L110.24 87.71 L109.9 88.04 L109.55 88.2 L109.05 88.18 L108.71 88.01 L108.38 87.66"/>
<path d="M186.56 86.92 L188.59 86.9 L188.59 86.56 L188.42 86.23 L188.25 86.06 L187.91 85.89 L187.4 85.9 L187.06 86.07 L186.73 86.41 L186.56 86.92 L186.57 87.26 L186.74 87.77 L187.08 88.1 L187.42 88.27 L187.93 88.26 L188.27 88.09 L188.6 87.75"/>
<path d="M186.69 87 L188.72 86.98 L188.72 86.64 L188.55 86.3 L188.38 86.13 L188.04 85.97 L187.53 85.97 L187.19 86.14 L186.86 86.49 L186.69 87 L186.7 87.33 L186.87 87.84 L187.21 88.18 L187.55 88.34 L188.06 88.34 L188.4 88.16 L188.73 87.82"/>
<path d="M97.18 91.13 L97.28 93.54 L97.44 93.95 L97.72 94.08 L98.01 94.07"/>
<path d="M96.8 92.14 L97.79 92.1"/>
<path d="M97.31 91.21 L97.41 93.61 L97.57 94.03 L97.85 94.16 L98.14 94.15"/>
<path d="M96.93 92.21 L97.92 92.18"/>
<path d="M198.72 91.14 L198.81 94.11"/>
<path d="M198.76 92.55 L199.04 92.26 L199.32 92.11 L199.74 92.1 L200.03 92.23 L200.32 92.51 L200.47 92.93 L200.48 93.21 L200.35 93.64 L200.08 93.93 L199.8 94.08 L199.38 94.09 L199.09 93.96 L198.8 93.68"/>
<path d="M198.85 91.22 L198.94 94.18"/>
<path d="M198.89 92.63 L199.17 92.34 L199.45 92.19 L199.87 92.18 L200.16 92.31 L200.45 92.58 L200.6 93 L200.61 93.28 L200.48 93.71 L200.21 94 L199.93 94.15 L199.51 94.17 L199.22 94.03 L198.93 93.76"/>
<path d="M98.1 98.56 L97.96 98.28 L97.54 98.13 L97.11 98.13 L96.69 98.27 L96.55 98.55 L96.68 98.84 L96.97 98.98 L97.67 99.13 L97.95 99.27 L98.09 99.55 L98.09 99.69 L97.95 99.98 L97.53 100.11 L97.1 100.11 L96.68 99.97 L96.54 99.68"/>
<path d="M98.23 98.64 L98.09 98.35 L97.67 98.21 L97.24 98.21 L96.82 98.35 L96.67 98.63 L96.81 98.91 L97.1 99.05 L97.8 99.2 L98.08 99.34 L98.22 99.63 L98.22 99.77 L98.08 100.05 L97.66 100.19 L97.23 100.19 L96.81 100.04 L96.67 99.76"/>
<path d="M193.59 96.81 L193.6 99.58 L193.77 100.07 L194.09 100.24 L194.42 100.24"/>
<path d="M193.11 97.95 L194.25 97.95"/>
<path d="M193.72 96.88 L193.73 99.66 L193.9 100.15 L194.22 100.31 L194.55 100.31"/>
<path d="M193.24 98.03 L194.38 98.02"/>
<path d="M108.78 103.9 L108.79 106.27"/>
<path d="M108.79 104.91 L108.95 104.4 L109.29 104.06 L109.63 103.89 L110.14 103.89"/>
<path d="M108.91 103.97 L108.92 106.34"/>
<path d="M108.92 104.99 L109.08 104.48 L109.42 104.14 L109.76 103.97 L110.27 103.97"/>
<path d="M186.74 104.09 L186.72 105.78 L186.88 106.29 L187.21 106.46 L187.72 106.47 L188.06 106.31 L188.58 105.81"/>
<path d="M188.61 104.12 L188.57 106.49"/>
<path d="M186.87 104.16 L186.85 105.85 L187.01 106.36 L187.34 106.54 L187.85 106.55 L188.19 106.38 L188.71 105.88"/>
<path d="M188.74 104.19 L188.7 106.56"/>
<path d="M193.61 103.14 L193.59 105.67 L193.74 106.11 L194.04 106.27 L194.33 106.27"/>
<path d="M193.16 104.18 L194.2 104.18"/>
<path d="M193.74 103.21 L193.72 105.74 L193.87 106.19 L194.17 106.34 L194.46 106.34"/>
<path d="M193.29 104.25 L194.33 104.26"/>
<path d="M107.75 110.05 L107.74 112.02"/>
<path d="M107.75 110.61 L108.17 110.19 L108.46 110.05 L108.88 110.06 L109.16 110.2 L109.29 110.62 L109.28 112.03"/>
<path d="M109.29 110.62 L109.72 110.21 L110 110.07 L110.42 110.07 L110.7 110.21 L110.84 110.64 L110.83 112.04"/>
<path d="M107.88 110.12 L107.87 112.09"/>
<path d="M107.88 110.69 L108.3 110.27 L108.59 110.13 L109.01 110.13 L109.29 110.28 L109.42 110.7 L109.41 112.1"/>
<path d="M109.42 110.7 L109.85 110.28 L110.13 110.14 L110.55 110.15 L110.83 110.29 L110.97 110.71 L110.96 112.12"/>
<path d="M116.26 110.63 L116.1 110.32 L115.63 110.16 L115.16 110.16 L114.69 110.31 L114.53 110.63 L114.69 110.94 L115 111.1 L115.78 111.26 L116.1 111.42 L116.25 111.73 L116.25 111.89 L116.09 112.2 L115.62 112.35 L115.15 112.35 L114.68 112.19 L114.53 111.88"/>
<path d="M116.39 110.71 L116.23 110.4 L115.76 110.24 L115.29 110.23 L114.82 110.39 L114.66 110.7 L114.82 111.01 L115.13 111.17 L115.91 111.33 L116.23 111.49 L116.38 111.81 L116.38 111.96 L116.22 112.27 L115.75 112.43 L115.28 112.43 L114.81 112.27 L114.66 111.95"/>
<path d="M121.32 111.64 L121.14 111.81 L121.31 111.98 L121.49 111.81 L121.32 111.64"/>
<path d="M121.45 111.71 L121.27 111.88 L121.44 112.06 L121.62 111.89 L121.45 111.71"/>
<path d="M174.5 111.07 L176.57 111.05 L176.56 110.71 L176.39 110.37 L176.22 110.19 L175.87 110.03 L175.36 110.03 L175.01 110.2 L174.67 110.55 L174.5 111.07 L174.51 111.41 L174.68 111.92 L175.03 112.27 L175.37 112.43 L175.89 112.43 L176.23 112.26 L176.57 111.91"/>
<path d="M174.63 111.14 L176.7 111.13 L176.69 110.78 L176.52 110.44 L176.35 110.27 L176 110.1 L175.48 110.1 L175.14 110.28 L174.8 110.62 L174.63 111.14 L174.64 111.48 L174.81 112 L175.16 112.34 L175.5 112.51 L176.02 112.51 L176.36 112.33 L176.7 111.99"/>
<path d="M187.38 109.28 L187.52 109.41 L187.66 109.27 L187.51 109.13 L187.38 109.28"/>
<path d="M187.55 110.26 L187.62 112.22"/>
<path d="M187.51 109.35 L187.65 109.49 L187.79 109.34 L187.64 109.21 L187.51 109.35"/>
<path d="M187.68 110.33 L187.75 112.3"/>
<path d="M132.43 115.23 L132.54 118.32"/>
<path d="M132.49 116.7 L132.77 116.39 L133.06 116.24 L133.5 116.22 L133.8 116.36 L134.11 116.64 L134.27 117.08 L134.28 117.37 L134.15 117.82 L133.86 118.13 L133.58 118.28 L133.13 118.3 L132.83 118.16 L132.53 117.88"/>
<path d="M132.56 115.3 L132.67 118.4"/>
<path d="M132.62 116.77 L132.9 116.47 L133.19 116.31 L133.63 116.3 L133.93 116.43 L134.24 116.72 L134.4 117.15 L134.41 117.45 L134.28 117.9 L133.99 118.2 L133.71 118.36 L133.26 118.37 L132.96 118.24 L132.66 117.95"/>
<path d="M139.43 115.09 L139.38 118.3"/>
<path d="M139.56 115.17 L139.51 118.38"/>
<path d="M145.28 116.09 L144.96 116.24 L144.65 116.55 L144.49 117.02 L144.49 117.33 L144.64 117.8 L144.94 118.11 L145.25 118.27 L145.72 118.28 L146.03 118.12 L146.35 117.82 L146.51 117.35 L146.51 117.04 L146.36 116.57 L146.05 116.26 L145.74 116.1 L145.28 116.09"/>
<path d="M145.41 116.17 L145.09 116.32 L144.78 116.63 L144.62 117.09 L144.62 117.4 L144.77 117.87 L145.07 118.19 L145.38 118.35 L145.85 118.35 L146.16 118.2 L146.48 117.89 L146.64 117.43 L146.64 117.11 L146.49 116.65 L146.18 116.33 L145.87 116.17 L145.41 116.17"/>
<path d="M151.29 116.38 L150.98 116.53 L150.67 116.84 L150.51 117.31 L150.51 117.62 L150.66 118.09 L150.97 118.4 L151.29 118.55 L151.75 118.56 L152.06 118.4 L152.38 118.09 L152.53 117.63 L152.54 117.31 L152.38 116.85 L152.07 116.53 L151.76 116.38 L151.29 116.38"/>
<path d="M151.42 116.45 L151.11 116.61 L150.8 116.92 L150.64 117.38 L150.64 117.69 L150.79 118.16 L151.1 118.47 L151.41 118.63 L151.88 118.63 L152.19 118.48 L152.51 118.17 L152.66 117.7 L152.66 117.39 L152.51 116.92 L152.2 116.61 L151.89 116.45 L151.42 116.45"/>
<path d="M155.8 116.32 L155.77 118.46"/>
<path d="M155.79 116.93 L156.25 116.48 L156.56 116.33 L157.02 116.34 L157.32 116.5 L157.47 116.96 L157.45 118.49"/>
<path d="M157.47 116.96 L157.93 116.5 L158.24 116.36 L158.7 116.36 L159 116.52 L159.15 116.98 L159.13 118.51"/>
<path d="M155.93 116.4 L155.9 118.54"/>
<path d="M155.92 117.01 L156.38 116.56 L156.69 116.41 L157.15 116.41 L157.45 116.57 L157.6 117.03 L157.58 118.56"/>
<path d="M157.6 117.03 L158.06 116.58 L158.37 116.43 L158.83 116.44 L159.13 116.59 L159.28 117.06 L159.26 118.58"/>
<path d="M164.38 116.72 L164.23 116.43 L163.79 116.28 L163.34 116.28 L162.9 116.42 L162.75 116.72 L162.9 117.01 L163.19 117.16 L163.93 117.31 L164.23 117.46 L164.37 117.75 L164.37 117.9 L164.22 118.19 L163.78 118.34 L163.34 118.34 L162.9 118.19 L162.75 117.9"/>
<path d="M164.51 116.8 L164.36 116.5 L163.92 116.35 L163.47 116.35 L163.03 116.5 L162.88 116.79 L163.03 117.09 L163.32 117.23 L164.06 117.38 L164.36 117.53 L164.5 117.83 L164.5 117.98 L164.35 118.27 L163.91 118.42 L163.47 118.41 L163.03 118.27 L162.88 117.97"/>
<path d="M169.51 117.52 L169.36 117.66 L169.5 117.8 L169.64 117.66 L169.51 117.52"/>
<path d="M169.64 117.6 L169.49 117.73 L169.63 117.88 L169.77 117.74 L169.64 117.6"/>
</g>
<g inkscape:groupmode="layer" inkscape:label="3-black-3pass" id="b3" stroke="#111111" stroke-width="0.3" fill="none" stroke-linecap="round" stroke-linejoin="round">
<path d="M126.36 79.54 L126.32 81.4 L126.49 81.96 L126.86 82.15 L127.42 82.17 L127.79 81.99 L128.36 81.44"/>
<path d="M128.4 79.58 L128.35 82.19"/>
<path d="M126.51 79.63 L126.48 81.49 L126.65 82.05 L127.02 82.24 L127.57 82.26 L127.95 82.08 L128.52 81.53"/>
<path d="M128.56 79.67 L128.5 82.28"/>
<path d="M126.67 79.72 L126.63 81.58 L126.81 82.14 L127.17 82.33 L127.73 82.35 L128.11 82.17 L128.67 81.62"/>
<path d="M128.71 79.76 L128.66 82.37"/>
<path d="M134.48 80.09 L134.29 79.69 L133.7 79.49 L133.1 79.48 L132.51 79.67 L132.31 80.06 L132.5 80.46 L132.89 80.66 L133.88 80.87 L134.27 81.07 L134.46 81.47 L134.46 81.67 L134.26 82.06 L133.66 82.25 L133.07 82.24 L132.48 82.04 L132.29 81.64"/>
<path d="M134.63 80.18 L134.44 79.78 L133.85 79.58 L133.26 79.57 L132.67 79.76 L132.46 80.15 L132.66 80.55 L133.05 80.75 L134.03 80.96 L134.43 81.16 L134.62 81.56 L134.62 81.76 L134.41 82.15 L133.82 82.34 L133.23 82.33 L132.64 82.13 L132.44 81.73"/>
<path d="M134.79 80.27 L134.6 79.87 L134.01 79.67 L133.42 79.66 L132.82 79.85 L132.62 80.24 L132.81 80.64 L133.2 80.84 L134.19 81.05 L134.58 81.25 L134.77 81.65 L134.77 81.85 L134.57 82.24 L133.98 82.43 L133.38 82.42 L132.79 82.22 L132.6 81.82"/>
<path d="M138.07 80.81 L140.54 80.87 L140.55 80.46 L140.36 80.04 L140.16 79.83 L139.75 79.62 L139.13 79.6 L138.72 79.79 L138.29 80.19 L138.07 80.81 L138.06 81.22 L138.25 81.84 L138.65 82.26 L139.05 82.48 L139.67 82.5 L140.09 82.3 L140.51 81.9"/>
<path d="M138.23 80.9 L140.7 80.96 L140.71 80.55 L140.51 80.13 L140.31 79.92 L139.91 79.71 L139.29 79.69 L138.87 79.88 L138.45 80.28 L138.23 80.9 L138.22 81.31 L138.4 81.93 L138.8 82.35 L139.21 82.57 L139.83 82.59 L140.25 82.39 L140.67 81.99"/>
<path d="M138.38 80.99 L140.85 81.05 L140.86 80.64 L140.67 80.22 L140.47 80.01 L140.06 79.8 L139.45 79.78 L139.03 79.97 L138.61 80.37 L138.38 80.99 L138.37 81.4 L138.56 82.02 L138.96 82.44 L139.37 82.66 L139.98 82.68 L140.4 82.48 L140.82 82.08"/>
<path d="M151.26 77.81 L151.46 78.03 L151.68 77.83 L151.48 77.61 L151.26 77.81"/>
<path d="M151.4 79.3 L151.27 82.24"/>
<path d="M151.42 77.9 L151.62 78.12 L151.84 77.92 L151.64 77.7 L151.42 77.9"/>
<path d="M151.56 79.39 L151.42 82.33"/>
<path d="M151.57 77.99 L151.77 78.21 L151.99 78.01 L151.79 77.79 L151.57 77.99"/>
<path d="M151.71 79.48 L151.58 82.42"/>
<path d="M157.49 77.87 L157.33 81.37 L157.5 82 L157.91 82.22 L158.32 82.24"/>
<path d="M156.81 79.28 L158.25 79.35"/>
<path d="M157.65 77.96 L157.48 81.46 L157.66 82.09 L158.06 82.31 L158.47 82.33"/>
<path d="M156.96 79.37 L158.4 79.44"/>
<path d="M157.81 78.05 L157.64 81.55 L157.82 82.18 L158.22 82.4 L158.63 82.42"/>
<path d="M157.12 79.46 L158.56 79.53"/>
<path d="M168.4 78.34 L168.24 82.23"/>
<path d="M168.32 80.19 L168.71 79.84 L169.09 79.67 L169.64 79.69 L170.01 79.89 L170.36 80.28 L170.53 80.84 L170.51 81.21 L170.3 81.76 L169.92 82.12 L169.54 82.29 L168.98 82.27 L168.62 82.06 L168.26 81.68"/>
<path d="M168.55 78.43 L168.39 82.32"/>
<path d="M168.48 80.28 L168.86 79.93 L169.24 79.76 L169.8 79.78 L170.16 79.98 L170.52 80.37 L170.68 80.93 L170.67 81.3 L170.46 81.85 L170.07 82.21 L169.69 82.38 L169.14 82.36 L168.77 82.15 L168.42 81.77"/>
<path d="M168.71 78.52 L168.55 82.41"/>
<path d="M168.63 80.37 L169.02 80.02 L169.4 79.85 L169.96 79.87 L170.32 80.07 L170.68 80.46 L170.84 81.02 L170.82 81.39 L170.61 81.94 L170.23 82.3 L169.85 82.47 L169.29 82.45 L168.93 82.24 L168.57 81.86"/>
<path d="M115.24 84.43 L115.22 88.43"/>
<path d="M115.39 84.52 L115.37 88.52"/>
<path d="M115.55 84.61 L115.53 88.61"/>
<path d="M121.06 85.53 L120.63 85.74 L120.2 86.15 L119.97 86.78 L119.96 87.2 L120.16 87.84 L120.57 88.27 L120.99 88.49 L121.62 88.51 L122.05 88.31 L122.48 87.89 L122.71 87.26 L122.72 86.84 L122.52 86.2 L122.11 85.77 L121.69 85.55 L121.06 85.53"/>
<path d="M121.22 85.62 L120.79 85.83 L120.36 86.24 L120.13 86.87 L120.12 87.29 L120.32 87.93 L120.73 88.36 L121.15 88.58 L121.78 88.6 L122.21 88.4 L122.64 87.98 L122.87 87.35 L122.88 86.93 L122.68 86.29 L122.27 85.86 L121.85 85.64 L121.22 85.62"/>
<path d="M121.37 85.71 L120.94 85.92 L120.51 86.33 L120.29 86.96 L120.28 87.38 L120.47 88.02 L120.88 88.45 L121.3 88.67 L121.94 88.69 L122.36 88.49 L122.8 88.07 L123.02 87.44 L123.03 87.02 L122.84 86.38 L122.42 85.95 L122.01 85.73 L121.37 85.71"/>
<path d="M174.42 85.4 L174.35 87.51 L174.55 88.15 L174.96 88.37 L175.6 88.39 L176.03 88.19 L176.68 87.58"/>
<path d="M176.74 85.47 L176.65 88.42"/>
<path d="M174.57 85.49 L174.51 87.6 L174.7 88.24 L175.12 88.46 L175.75 88.48 L176.18 88.28 L176.83 87.67"/>
<path d="M176.9 85.56 L176.81 88.51"/>
<path d="M174.73 85.58 L174.67 87.69 L174.86 88.33 L175.27 88.55 L175.91 88.57 L176.34 88.37 L176.99 87.76"/>
<path d="M177.05 85.65 L176.96 88.6"/>
<path d="M182.62 86.18 L182.44 85.8 L181.87 85.59 L181.3 85.57 L180.73 85.74 L180.52 86.12 L180.7 86.51 L181.08 86.71 L182.02 86.93 L182.4 87.13 L182.58 87.51 L182.57 87.7 L182.37 88.08 L181.79 88.25 L181.22 88.23 L180.66 88.03 L180.48 87.64"/>
<path d="M182.77 86.27 L182.59 85.89 L182.03 85.68 L181.46 85.66 L180.88 85.83 L180.68 86.21 L180.86 86.6 L181.23 86.8 L182.18 87.02 L182.55 87.22 L182.73 87.6 L182.73 87.79 L182.52 88.17 L181.95 88.34 L181.38 88.32 L180.81 88.12 L180.63 87.73"/>
<path d="M182.93 86.36 L182.75 85.98 L182.18 85.77 L181.61 85.75 L181.04 85.92 L180.84 86.3 L181.01 86.69 L181.39 86.89 L182.33 87.11 L182.71 87.31 L182.89 87.69 L182.88 87.88 L182.68 88.26 L182.1 88.43 L181.53 88.41 L180.97 88.21 L180.79 87.82"/>
<path d="M107.73 91.81 L108.41 94.44"/>
<path d="M109.23 91.84 L108.41 94.44"/>
<path d="M109.23 91.84 L109.91 94.48"/>
<path d="M110.72 91.88 L109.91 94.48"/>
<path d="M107.89 91.9 L108.57 94.53"/>
<path d="M109.38 91.93 L108.57 94.53"/>
<path d="M109.38 91.93 L110.06 94.57"/>
<path d="M110.88 91.97 L110.06 94.57"/>
<path d="M108.04 91.99 L108.72 94.62"/>
<path d="M109.54 92.02 L108.72 94.62"/>
<path d="M109.54 92.02 L110.22 94.66"/>
<path d="M111.03 92.06 L110.22 94.66"/>
<path d="M114.25 90.04 L114.1 94.49"/>
<path d="M114.17 92.37 L114.83 91.75 L115.26 91.56 L115.9 91.58 L116.31 91.81 L116.5 92.45 L116.43 94.57"/>
<path d="M114.41 90.13 L114.26 94.58"/>
<path d="M114.33 92.46 L114.99 91.84 L115.42 91.65 L116.05 91.67 L116.47 91.9 L116.66 92.54 L116.59 94.66"/>
<path d="M114.56 90.22 L114.41 94.67"/>
<path d="M114.49 92.55 L115.14 91.93 L115.57 91.74 L116.21 91.76 L116.62 91.99 L116.81 92.63 L116.74 94.75"/>
<path d="M179.19 91.49 L179.05 94.45"/>
<path d="M179.15 92.33 L179.81 91.73 L180.24 91.54 L180.88 91.57 L181.29 91.8 L181.47 92.44 L181.37 94.56"/>
<path d="M181.47 92.44 L182.14 91.84 L182.57 91.65 L183.21 91.68 L183.62 91.91 L183.8 92.55 L183.7 94.67"/>
<path d="M179.34 91.58 L179.2 94.54"/>
<path d="M179.3 92.42 L179.97 91.82 L180.4 91.63 L181.03 91.66 L181.45 91.89 L181.63 92.53 L181.53 94.65"/>
<path d="M181.63 92.53 L182.29 91.93 L182.73 91.74 L183.36 91.77 L183.78 92 L183.96 92.64 L183.86 94.76"/>
<path d="M179.5 91.67 L179.36 94.63"/>
<path d="M179.46 92.51 L180.12 91.91 L180.56 91.72 L181.19 91.75 L181.6 91.98 L181.79 92.62 L181.69 94.74"/>
<path d="M181.79 92.62 L182.45 92.02 L182.88 91.83 L183.52 91.86 L183.93 92.09 L184.11 92.73 L184.01 94.85"/>
<path d="M188.62 92.22 L188.44 91.85 L187.88 91.65 L187.32 91.63 L186.76 91.81 L186.56 92.18 L186.74 92.55 L187.11 92.75 L188.04 92.96 L188.41 93.15 L188.58 93.53 L188.58 93.72 L188.38 94.09 L187.82 94.26 L187.26 94.25 L186.7 94.05 L186.52 93.67"/>
<path d="M188.77 92.31 L188.59 91.94 L188.04 91.74 L187.48 91.72 L186.91 91.9 L186.72 92.27 L186.89 92.64 L187.26 92.84 L188.19 93.05 L188.56 93.24 L188.74 93.62 L188.74 93.81 L188.54 94.18 L187.98 94.35 L187.41 94.34 L186.86 94.14 L186.68 93.76"/>
<path d="M188.93 92.4 L188.75 92.03 L188.19 91.83 L187.63 91.81 L187.07 91.99 L186.87 92.36 L187.05 92.73 L187.42 92.93 L188.35 93.14 L188.72 93.33 L188.9 93.71 L188.89 93.9 L188.7 94.27 L188.13 94.44 L187.57 94.43 L187.01 94.23 L186.84 93.85"/>
<path d="M107.74 97.88 L108.4 100.52"/>
<path d="M109.24 97.93 L108.4 100.52"/>
<path d="M109.24 97.93 L109.89 100.58"/>
<path d="M110.73 97.99 L109.89 100.58"/>
<path d="M107.9 97.97 L108.55 100.61"/>
<path d="M109.39 98.02 L108.55 100.61"/>
<path d="M109.39 98.02 L110.05 100.67"/>
<path d="M110.89 98.08 L110.05 100.67"/>
<path d="M108.05 98.06 L108.71 100.7"/>
<path d="M109.55 98.11 L108.71 100.7"/>
<path d="M109.55 98.11 L110.2 100.76"/>
<path d="M111.04 98.17 L110.2 100.76"/>
<path d="M115.16 96.11 L115.36 96.33 L115.58 96.13 L115.38 95.91 L115.16 96.11"/>
<path d="M115.29 97.6 L115.11 100.56"/>
<path d="M115.32 96.2 L115.51 96.42 L115.74 96.22 L115.54 96 L115.32 96.2"/>
<path d="M115.44 97.69 L115.27 100.65"/>
<path d="M115.47 96.29 L115.67 96.51 L115.89 96.31 L115.69 96.09 L115.47 96.29"/>
<path d="M115.6 97.78 L115.43 100.74"/>
<path d="M187.37 96.59 L187.55 96.78 L187.74 96.6 L187.56 96.41 L187.37 96.59"/>
<path d="M187.52 97.9 L187.43 100.52"/>
<path d="M187.53 96.68 L187.71 96.87 L187.9 96.69 L187.72 96.5 L187.53 96.68"/>
<path d="M187.67 97.99 L187.59 100.61"/>
<path d="M187.68 96.77 L187.86 96.96 L188.06 96.78 L187.88 96.59 L187.68 96.77"/>
<path d="M187.83 98.08 L187.74 100.7"/>
<path d="M115.05 103.75 L114.67 103.94 L114.28 104.31 L114.08 104.88 L114.07 105.26 L114.26 105.83 L114.63 106.22 L115.01 106.42 L115.58 106.43 L115.96 106.24 L116.35 105.87 L116.55 105.3 L116.55 104.92 L116.37 104.34 L116 103.96 L115.62 103.76 L115.05 103.75"/>
<path d="M115.2 103.84 L114.82 104.03 L114.43 104.4 L114.24 104.97 L114.23 105.35 L114.41 105.92 L114.79 106.31 L115.16 106.51 L115.73 106.52 L116.12 106.33 L116.5 105.96 L116.7 105.39 L116.71 105.01 L116.53 104.43 L116.15 104.05 L115.78 103.85 L115.2 103.84"/>
<path d="M115.36 103.93 L114.98 104.12 L114.59 104.49 L114.39 105.06 L114.39 105.44 L114.57 106.01 L114.94 106.4 L115.32 106.6 L115.89 106.61 L116.27 106.42 L116.66 106.05 L116.86 105.48 L116.87 105.1 L116.68 104.52 L116.31 104.14 L115.93 103.94 L115.36 103.93"/>
<path d="M122.53 104.33 L122.33 103.9 L121.7 103.67 L121.07 103.65 L120.43 103.84 L120.2 104.25 L120.4 104.68 L120.82 104.91 L121.87 105.15 L122.28 105.38 L122.48 105.81 L122.47 106.02 L122.25 106.44 L121.61 106.63 L120.97 106.61 L120.35 106.37 L120.15 105.94"/>
<path d="M122.68 104.42 L122.49 103.99 L121.86 103.76 L121.23 103.74 L120.58 103.93 L120.36 104.34 L120.56 104.77 L120.97 105 L122.02 105.24 L122.44 105.47 L122.64 105.9 L122.63 106.11 L122.4 106.53 L121.76 106.72 L121.13 106.7 L120.5 106.46 L120.3 106.03"/>
<path d="M122.84 104.51 L122.64 104.08 L122.01 103.85 L121.38 103.83 L120.74 104.02 L120.52 104.43 L120.71 104.86 L121.13 105.09 L122.18 105.33 L122.59 105.56 L122.79 105.99 L122.78 106.2 L122.56 106.62 L121.92 106.81 L121.29 106.79 L120.66 106.55 L120.46 106.12"/>
<path d="M174.5 102.09 L174.3 106.53"/>
<path d="M174.4 104.41 L175.06 103.81 L175.49 103.62 L176.12 103.64 L176.53 103.87 L176.72 104.52 L176.63 106.63"/>
<path d="M174.65 102.18 L174.46 106.62"/>
<path d="M174.55 104.5 L175.21 103.9 L175.64 103.71 L176.28 103.73 L176.69 103.96 L176.87 104.61 L176.78 106.72"/>
<path d="M174.81 102.27 L174.62 106.71"/>
<path d="M174.71 104.59 L175.37 103.99 L175.8 103.8 L176.43 103.82 L176.85 104.05 L177.03 104.7 L176.94 106.81"/>
<path d="M181.28 103.71 L180.9 103.9 L180.51 104.28 L180.32 104.85 L180.32 105.23 L180.51 105.8 L180.89 106.18 L181.27 106.37 L181.84 106.38 L182.22 106.19 L182.6 105.81 L182.79 105.24 L182.8 104.86 L182.61 104.29 L182.23 103.9 L181.85 103.71 L181.28 103.71"/>
<path d="M181.43 103.8 L181.05 103.99 L180.67 104.37 L180.48 104.94 L180.48 105.32 L180.66 105.89 L181.04 106.27 L181.42 106.46 L181.99 106.47 L182.38 106.28 L182.76 105.9 L182.95 105.33 L182.95 104.95 L182.76 104.38 L182.38 103.99 L182 103.8 L181.43 103.8"/>
<path d="M181.59 103.89 L181.21 104.08 L180.83 104.46 L180.63 105.03 L180.63 105.41 L180.82 105.98 L181.2 106.36 L181.58 106.55 L182.15 106.56 L182.53 106.37 L182.91 105.99 L183.11 105.42 L183.11 105.04 L182.92 104.47 L182.54 104.08 L182.16 103.89 L181.59 103.89"/>
<path d="M133.3 108.36 L133.28 112.5"/>
<path d="M131.92 108.35 L134.68 108.36"/>
<path d="M133.46 108.45 L133.44 112.59"/>
<path d="M132.07 108.44 L134.84 108.45"/>
<path d="M133.61 108.54 L133.59 112.68"/>
<path d="M132.23 108.53 L134.99 108.54"/>
<path d="M138.36 108.49 L138.22 112.81"/>
<path d="M138.29 110.75 L138.93 110.15 L139.34 109.96 L139.96 109.98 L140.37 110.2 L140.55 110.82 L140.49 112.88"/>
<path d="M138.52 108.58 L138.38 112.9"/>
<path d="M138.44 110.84 L139.08 110.24 L139.5 110.05 L140.12 110.07 L140.52 110.29 L140.71 110.91 L140.64 112.97"/>
<path d="M138.67 108.67 L138.53 112.99"/>
<path d="M138.6 110.93 L139.24 110.33 L139.66 110.14 L140.27 110.16 L140.68 110.38 L140.86 111 L140.8 113.06"/>
<path d="M144.06 111.19 L146.59 111.27 L146.6 110.85 L146.41 110.42 L146.2 110.2 L145.79 109.98 L145.16 109.96 L144.73 110.16 L144.3 110.56 L144.06 111.19 L144.05 111.61 L144.24 112.24 L144.65 112.68 L145.06 112.9 L145.69 112.92 L146.12 112.73 L146.55 112.32"/>
<path d="M144.22 111.28 L146.74 111.36 L146.76 110.94 L146.56 110.51 L146.36 110.29 L145.94 110.07 L145.31 110.05 L144.89 110.25 L144.45 110.65 L144.22 111.28 L144.21 111.7 L144.4 112.33 L144.8 112.77 L145.22 112.99 L145.85 113.01 L146.27 112.82 L146.71 112.41"/>
<path d="M144.38 111.37 L146.9 111.45 L146.91 111.03 L146.72 110.6 L146.51 110.38 L146.1 110.16 L145.47 110.14 L145.04 110.34 L144.61 110.74 L144.38 111.37 L144.36 111.79 L144.55 112.42 L144.96 112.86 L145.37 113.08 L146 113.1 L146.43 112.91 L146.86 112.5"/>
<path d="M156.81 109.76 L156.67 112.64"/>
<path d="M156.75 110.99 L156.98 110.38 L157.42 109.99 L157.84 109.8 L158.45 109.83"/>
<path d="M156.96 109.85 L156.83 112.73"/>
<path d="M156.91 111.08 L157.14 110.47 L157.57 110.08 L157.99 109.89 L158.61 109.92"/>
<path d="M157.12 109.94 L156.98 112.82"/>
<path d="M157.06 111.17 L157.3 110.56 L157.73 110.17 L158.15 109.98 L158.77 110.01"/>
<path d="M163.22 109.76 L162.82 109.96 L162.42 110.35 L162.21 110.93 L162.21 111.33 L162.39 111.92 L162.78 112.33 L163.18 112.53 L163.77 112.54 L164.17 112.35 L164.57 111.96 L164.77 111.37 L164.78 110.97 L164.59 110.38 L164.2 109.98 L163.81 109.77 L163.22 109.76"/>
<path d="M163.37 109.85 L162.97 110.05 L162.57 110.44 L162.37 111.02 L162.36 111.42 L162.55 112.01 L162.94 112.42 L163.33 112.62 L163.92 112.63 L164.32 112.44 L164.72 112.05 L164.93 111.46 L164.93 111.06 L164.74 110.47 L164.36 110.07 L163.96 109.86 L163.37 109.85"/>
<path d="M163.53 109.94 L163.13 110.14 L162.73 110.53 L162.52 111.11 L162.52 111.51 L162.71 112.1 L163.09 112.51 L163.49 112.71 L164.08 112.72 L164.48 112.53 L164.88 112.14 L165.08 111.55 L165.09 111.15 L164.9 110.56 L164.51 110.16 L164.12 109.95 L163.53 109.94"/>
<path d="M170.54 110.38 L170.35 110.01 L169.8 109.82 L169.24 109.81 L168.68 110 L168.49 110.37 L168.68 110.74 L169.05 110.93 L169.97 111.12 L170.35 111.31 L170.53 111.68 L170.53 111.87 L170.34 112.24 L169.78 112.42 L169.22 112.42 L168.67 112.23 L168.48 111.85"/>
<path d="M170.69 110.47 L170.51 110.1 L169.95 109.91 L169.4 109.9 L168.84 110.09 L168.65 110.46 L168.83 110.83 L169.2 111.02 L170.13 111.21 L170.5 111.4 L170.68 111.77 L170.68 111.96 L170.49 112.33 L169.94 112.51 L169.38 112.51 L168.82 112.32 L168.64 111.94"/>
<path d="M170.85 110.56 L170.67 110.19 L170.11 110 L169.55 109.99 L168.99 110.18 L168.81 110.55 L168.99 110.92 L169.36 111.11 L170.29 111.3 L170.66 111.49 L170.84 111.86 L170.84 112.05 L170.65 112.42 L170.09 112.6 L169.53 112.6 L168.98 112.41 L168.8 112.03"/>
</g>
<g inkscape:groupmode="layer" inkscape:label="4-black-hatch" id="b4" stroke="#111111" stroke-width="0.3" fill="none" stroke-linecap="round" stroke-linejoin="round">
<path d="M127.09 85.52 L126.62 85.73 L126.13 86.17 L125.87 86.85 L125.85 87.31 L126.05 88.02 L126.49 88.5 L126.94 88.75 L127.63 88.79 L128.11 88.58 L128.59 88.14 L128.85 87.45 L128.88 86.99 L128.68 86.29 L128.24 85.8 L127.79 85.55 L127.09 85.52"/>
<path d="M127.25 85.61 L126.77 85.82 L126.29 86.26 L126.02 86.94 L126 87.4 L126.2 88.11 L126.64 88.59 L127.09 88.84 L127.79 88.88 L128.26 88.67 L128.75 88.23 L129.01 87.54 L129.03 87.08 L128.83 86.38 L128.39 85.89 L127.94 85.64 L127.25 85.61"/>
<path d="M127.4 85.7 L126.93 85.91 L126.44 86.35 L126.18 87.03 L126.16 87.49 L126.36 88.2 L126.8 88.68 L127.25 88.93 L127.94 88.97 L128.42 88.76 L128.9 88.32 L129.17 87.63 L129.19 87.17 L128.99 86.47 L128.55 85.98 L128.1 85.73 L127.4 85.7"/>
<path d="M128.52 85.87 L128.79 86.14"/>
<path d="M128.25 85.87 L128.79 86.41"/>
<path d="M127.98 85.87 L128.79 86.68"/>
<path d="M127.71 85.87 L128.79 86.95"/>
<path d="M127.44 85.87 L128.79 87.22"/>
<path d="M127.17 85.87 L128.79 87.49"/>
<path d="M126.9 85.87 L128.79 87.76"/>
<path d="M126.63 85.87 L128.79 88.03"/>
<path d="M126.36 85.87 L128.79 88.3"/>
<path d="M126.25 86.02 L128.79 88.57"/>
<path d="M126.25 86.29 L128.57 88.62"/>
<path d="M126.25 86.56 L128.3 88.62"/>
<path d="M126.25 86.83 L128.03 88.62"/>
<path d="M126.25 87.1 L127.76 88.62"/>
<path d="M126.25 87.37 L127.49 88.62"/>
<path d="M126.25 87.64 L127.22 88.62"/>
<path d="M126.25 87.91 L126.95 88.62"/>
<path d="M126.25 88.18 L126.68 88.62"/>
<path d="M126.25 88.45 L126.41 88.62"/>
<path d="M130.61 85.08 L130.43 88.57"/>
<path d="M130.56 86.08 L131.34 85.37 L131.86 85.14 L132.6 85.18 L133.09 85.45 L133.3 86.22 L133.18 88.71"/>
<path d="M133.3 86.22 L134.09 85.5 L134.6 85.28 L135.35 85.32 L135.83 85.59 L136.05 86.35 L135.92 88.85"/>
<path d="M130.76 85.17 L130.59 88.66"/>
<path d="M130.71 86.17 L131.5 85.46 L132.01 85.23 L132.76 85.27 L133.25 85.54 L133.46 86.31 L133.33 88.8"/>
<path d="M133.46 86.31 L134.24 85.59 L134.76 85.37 L135.5 85.41 L135.99 85.68 L136.2 86.44 L136.08 88.94"/>
<path d="M130.92 85.26 L130.75 88.75"/>
<path d="M130.87 86.26 L131.66 85.55 L132.17 85.32 L132.92 85.36 L133.4 85.63 L133.61 86.4 L133.49 88.89"/>
<path d="M133.61 86.4 L134.4 85.68 L134.91 85.46 L135.66 85.5 L136.15 85.77 L136.36 86.53 L136.23 89.03"/>
<path d="M135.48 85.47 L135.75 85.74"/>
<path d="M135.21 85.47 L135.75 86.01"/>
<path d="M134.94 85.47 L135.75 86.28"/>
<path d="M134.67 85.47 L135.75 86.55"/>
<path d="M134.4 85.47 L135.75 86.82"/>
<path d="M134.13 85.47 L135.75 87.09"/>
<path d="M133.86 85.47 L135.75 87.36"/>
<path d="M133.59 85.47 L135.75 87.63"/>
<path d="M133.32 85.47 L135.75 87.9"/>
<path d="M133.05 85.47 L135.75 88.17"/>
<path d="M132.78 85.47 L135.75 88.44"/>
<path d="M132.51 85.47 L135.68 88.64"/>
<path d="M132.24 85.47 L135.41 88.64"/>
<path d="M131.97 85.47 L135.14 88.64"/>
<path d="M131.7 85.47 L134.87 88.64"/>
<path d="M131.43 85.47 L134.6 88.64"/>
<path d="M131.16 85.47 L134.33 88.64"/>
<path d="M131.04 85.62 L134.06 88.64"/>
<path d="M131.04 85.89 L133.79 88.64"/>
<path d="M131.04 86.16 L133.52 88.64"/>
<path d="M131.04 86.43 L133.25 88.64"/>
<path d="M131.04 86.7 L132.98 88.64"/>
<path d="M131.04 86.97 L132.71 88.64"/>
<path d="M131.04 87.24 L132.44 88.64"/>
<path d="M131.04 87.51 L132.17 88.64"/>
<path d="M131.04 87.78 L131.9 88.64"/>
<path d="M131.04 88.05 L131.63 88.64"/>
<path d="M131.04 88.32 L131.36 88.64"/>
<path d="M131.04 88.59 L131.09 88.64"/>
<path d="M140.84 86.17 L140.62 85.65 L139.89 85.35 L139.14 85.31 L138.38 85.51 L138.1 85.99 L138.31 86.5 L138.8 86.79 L140.03 87.12 L140.51 87.4 L140.73 87.91 L140.71 88.16 L140.43 88.64 L139.66 88.84 L138.92 88.8 L138.19 88.5 L137.97 87.98"/>
<path d="M141 86.26 L140.78 85.74 L140.05 85.44 L139.3 85.4 L138.53 85.6 L138.25 86.08 L138.47 86.59 L138.95 86.88 L140.18 87.21 L140.67 87.49 L140.88 88 L140.87 88.25 L140.58 88.73 L139.82 88.93 L139.07 88.89 L138.34 88.59 L138.12 88.07"/>
<path d="M141.15 86.35 L140.93 85.83 L140.2 85.53 L139.45 85.49 L138.69 85.69 L138.41 86.17 L138.63 86.68 L139.11 86.97 L140.34 87.3 L140.82 87.58 L141.04 88.09 L141.02 88.34 L140.74 88.82 L139.98 89.02 L139.23 88.98 L138.5 88.68 L138.28 88.16"/>
<path d="M140.5 85.68 L140.77 85.95"/>
<path d="M140.23 85.68 L140.77 86.22"/>
<path d="M139.96 85.68 L140.77 86.49"/>
<path d="M139.69 85.68 L140.77 86.76"/>
<path d="M139.42 85.68 L140.77 87.03"/>
<path d="M139.15 85.68 L140.77 87.3"/>
<path d="M138.88 85.68 L140.77 87.57"/>
<path d="M138.61 85.68 L140.77 87.84"/>
<path d="M138.35 85.7 L140.77 88.11"/>
<path d="M138.35 85.97 L140.77 88.38"/>
<path d="M138.35 86.24 L140.77 88.65"/>
<path d="M138.35 86.51 L140.5 88.65"/>
<path d="M138.35 86.78 L140.23 88.65"/>
<path d="M138.35 87.05 L139.96 88.65"/>
<path d="M138.35 87.32 L139.69 88.65"/>
<path d="M138.35 87.59 L139.42 88.65"/>
<path d="M138.35 87.86 L139.15 88.65"/>
<path d="M138.35 88.13 L138.88 88.65"/>
<path d="M138.35 88.4 L138.61 88.65"/>
<path d="M150.1 83.57 L149.69 88.8"/>
<path d="M149.9 86.06 L150.44 85.6 L150.95 85.39 L151.7 85.45 L152.18 85.74 L152.64 86.27 L152.83 87.04 L152.79 87.54 L152.48 88.27 L151.95 88.72 L151.43 88.93 L150.68 88.88 L150.2 88.59 L149.74 88.05"/>
<path d="M150.25 83.66 L149.84 88.89"/>
<path d="M150.06 86.15 L150.59 85.69 L151.11 85.48 L151.86 85.54 L152.34 85.83 L152.79 86.36 L152.99 87.13 L152.95 87.63 L152.64 88.36 L152.1 88.81 L151.58 89.02 L150.84 88.97 L150.36 88.68 L149.9 88.14"/>
<path d="M150.41 83.75 L150 88.98"/>
<path d="M150.21 86.24 L150.75 85.78 L151.27 85.57 L152.01 85.63 L152.49 85.92 L152.95 86.45 L153.14 87.22 L153.1 87.72 L152.79 88.45 L152.26 88.9 L151.74 89.11 L150.99 89.06 L150.51 88.77 L150.06 88.23"/>
<path d="M152.46 84.09 L152.73 84.36"/>
<path d="M152.19 84.09 L152.73 84.63"/>
<path d="M151.92 84.09 L152.73 84.9"/>
<path d="M151.65 84.09 L152.73 85.17"/>
<path d="M151.38 84.09 L152.73 85.44"/>
<path d="M151.11 84.09 L152.73 85.71"/>
<path d="M150.84 84.09 L152.73 85.98"/>
<path d="M150.57 84.09 L152.73 86.25"/>
<path d="M150.3 84.09 L152.73 86.52"/>
<path d="M150.09 84.15 L152.73 86.79"/>
<path d="M150.09 84.42 L152.73 87.06"/>
<path d="M150.09 84.69 L152.73 87.33"/>
<path d="M150.09 84.96 L152.73 87.6"/>
<path d="M150.09 85.23 L152.73 87.87"/>
<path d="M150.09 85.5 L152.73 88.14"/>
<path d="M150.09 85.77 L152.73 88.41"/>
<path d="M150.09 86.04 L152.65 88.6"/>
<path d="M150.09 86.31 L152.38 88.6"/>
<path d="M150.09 86.58 L152.11 88.6"/>
<path d="M150.09 86.85 L151.84 88.6"/>
<path d="M150.09 87.12 L151.57 88.6"/>
<path d="M150.09 87.39 L151.3 88.6"/>
<path d="M150.09 87.66 L151.03 88.6"/>
<path d="M150.09 87.93 L150.76 88.6"/>
<path d="M150.09 88.2 L150.49 88.6"/>
<path d="M150.09 88.47 L150.22 88.6"/>
<path d="M155.87 86.9 L158.86 87.02 L158.88 86.53 L158.66 86.02 L158.42 85.76 L157.93 85.49 L157.18 85.45 L156.67 85.68 L156.15 86.16 L155.87 86.9 L155.85 87.4 L156.07 88.16 L156.55 88.68 L157.03 88.95 L157.78 88.98 L158.29 88.75 L158.81 88.27"/>
<path d="M156.02 86.99 L159.02 87.11 L159.04 86.62 L158.81 86.11 L158.57 85.85 L158.08 85.58 L157.33 85.54 L156.83 85.77 L156.31 86.25 L156.02 86.99 L156 87.49 L156.22 88.25 L156.7 88.77 L157.19 89.04 L157.94 89.07 L158.45 88.84 L158.97 88.36"/>
<path d="M156.18 87.08 L159.18 87.2 L159.2 86.71 L158.97 86.2 L158.73 85.94 L158.24 85.67 L157.49 85.63 L156.98 85.86 L156.46 86.34 L156.18 87.08 L156.16 87.58 L156.38 88.34 L156.86 88.86 L157.35 89.13 L158.09 89.16 L158.6 88.93 L159.12 88.45"/>
<path d="M158.53 85.83 L158.8 86.1"/>
<path d="M158.26 85.83 L158.8 86.37"/>
<path d="M157.99 85.83 L158.8 86.64"/>
<path d="M157.72 85.83 L158.8 86.91"/>
<path d="M157.45 85.83 L158.8 87.18"/>
<path d="M157.18 85.83 L158.8 87.45"/>
<path d="M156.91 85.83 L158.8 87.72"/>
<path d="M156.64 85.83 L158.8 87.99"/>
<path d="M156.37 85.83 L158.8 88.26"/>
<path d="M156.25 85.98 L158.8 88.53"/>
<path d="M156.25 86.25 L158.79 88.79"/>
<path d="M156.25 86.52 L158.52 88.79"/>
<path d="M156.25 86.79 L158.25 88.79"/>
<path d="M156.25 87.06 L157.98 88.79"/>
<path d="M156.25 87.33 L157.71 88.79"/>
<path d="M156.25 87.6 L157.44 88.79"/>
<path d="M156.25 87.87 L157.17 88.79"/>
<path d="M156.25 88.14 L156.9 88.79"/>
<path d="M156.25 88.41 L156.63 88.79"/>
<path d="M156.25 88.68 L156.36 88.79"/>
<path d="M164.92 86.15 L164.44 85.62 L163.95 85.35 L163.2 85.32 L162.69 85.55 L162.17 86.03 L161.89 86.77 L161.87 87.26 L162.09 88.02 L162.56 88.54 L163.05 88.82 L163.8 88.85 L164.31 88.62 L164.83 88.14"/>
<path d="M165.07 86.24 L164.6 85.71 L164.11 85.44 L163.36 85.41 L162.85 85.64 L162.33 86.12 L162.05 86.86 L162.03 87.35 L162.24 88.11 L162.72 88.63 L163.21 88.91 L163.96 88.94 L164.47 88.71 L164.99 88.23"/>
<path d="M165.23 86.33 L164.75 85.8 L164.26 85.53 L163.51 85.5 L163 85.73 L162.48 86.21 L162.2 86.95 L162.18 87.44 L162.4 88.2 L162.88 88.72 L163.36 89 L164.11 89.03 L164.62 88.8 L165.14 88.32"/>
<path d="M164.56 85.69 L164.83 85.96"/>
<path d="M164.29 85.69 L164.83 86.23"/>
<path d="M164.02 85.69 L164.83 86.5"/>
<path d="M163.75 85.69 L164.83 86.77"/>
<path d="M163.48 85.69 L164.83 87.04"/>
<path d="M163.21 85.69 L164.83 87.31"/>
<path d="M162.94 85.69 L164.83 87.58"/>
<path d="M162.67 85.69 L164.83 87.85"/>
<path d="M162.4 85.69 L164.83 88.12"/>
<path d="M162.27 85.83 L164.83 88.39"/>
<path d="M162.27 86.1 L164.82 88.66"/>
<path d="M162.27 86.37 L164.55 88.66"/>
<path d="M162.27 86.64 L164.28 88.66"/>
<path d="M162.27 86.91 L164.01 88.66"/>
<path d="M162.27 87.18 L163.74 88.66"/>
<path d="M162.27 87.45 L163.47 88.66"/>
<path d="M162.27 87.72 L163.2 88.66"/>
<path d="M162.27 87.99 L162.93 88.66"/>
<path d="M162.27 88.26 L162.66 88.66"/>
<path d="M162.27 88.53 L162.39 88.66"/>
<path d="M170.88 85.39 L170.67 88.62"/>
<path d="M170.84 86.08 L170.41 85.59 L169.96 85.33 L169.27 85.28 L168.79 85.48 L168.3 85.91 L168.02 86.59 L167.99 87.05 L168.17 87.76 L168.6 88.26 L169.05 88.52 L169.75 88.56 L170.22 88.36 L170.72 87.93"/>
<path d="M171.04 85.48 L170.83 88.71"/>
<path d="M170.99 86.17 L170.56 85.68 L170.11 85.42 L169.42 85.37 L168.94 85.57 L168.45 86 L168.17 86.68 L168.14 87.14 L168.33 87.85 L168.76 88.35 L169.21 88.61 L169.9 88.65 L170.38 88.45 L170.87 88.02"/>
<path d="M171.19 85.57 L170.98 88.8"/>
<path d="M171.15 86.26 L170.72 85.77 L170.27 85.51 L169.58 85.46 L169.1 85.66 L168.61 86.09 L168.33 86.77 L168.3 87.23 L168.48 87.94 L168.92 88.44 L169.36 88.7 L170.06 88.74 L170.53 88.54 L171.03 88.11"/>
<path d="M170.54 85.64 L170.81 85.91"/>
<path d="M170.27 85.64 L170.81 86.18"/>
<path d="M170 85.64 L170.81 86.45"/>
<path d="M169.73 85.64 L170.81 86.72"/>
<path d="M169.46 85.64 L170.81 86.99"/>
<path d="M169.19 85.64 L170.81 87.26"/>
<path d="M168.92 85.64 L170.81 87.53"/>
<path d="M168.65 85.64 L170.81 87.8"/>
<path d="M168.38 85.64 L170.81 88.07"/>
<path d="M168.38 85.91 L170.81 88.34"/>
<path d="M168.38 86.18 L170.64 88.45"/>
<path d="M168.38 86.45 L170.37 88.45"/>
<path d="M168.38 86.72 L170.1 88.45"/>
<path d="M168.38 86.99 L169.83 88.45"/>
<path d="M168.38 87.26 L169.56 88.45"/>
<path d="M168.38 87.53 L169.29 88.45"/>
<path d="M168.38 87.8 L169.02 88.45"/>
<path d="M168.38 88.07 L168.75 88.45"/>
<path d="M168.38 88.34 L168.48 88.45"/>
<path d="M119.88 91.27 L121.14 94.67"/>
<path d="M122.73 91.41 L121.14 94.67 L120.62 95.59 L120.12 96.05 L119.64 96.26 L119.4 96.25"/>
<path d="M120.03 91.36 L121.3 94.76"/>
<path d="M122.89 91.5 L121.3 94.76 L120.78 95.68 L120.28 96.14 L119.79 96.35 L119.55 96.34"/>
<path d="M120.19 91.45 L121.45 94.85"/>
<path d="M123.04 91.59 L121.45 94.85 L120.93 95.77 L120.43 96.23 L119.95 96.44 L119.71 96.43"/>
<path d="M122.35 91.76 L122.62 92.03"/>
<path d="M122.08 91.76 L122.62 92.3"/>
<path d="M121.81 91.76 L122.62 92.57"/>
<path d="M121.54 91.76 L122.62 92.84"/>
<path d="M121.27 91.76 L122.62 93.11"/>
<path d="M121 91.76 L122.62 93.38"/>
<path d="M120.73 91.76 L122.62 93.65"/>
<path d="M120.46 91.76 L122.62 93.92"/>
<path d="M120.19 91.76 L122.62 94.19"/>
<path d="M119.92 91.76 L122.62 94.46"/>
<path d="M119.82 91.93 L122.62 94.73"/>
<path d="M119.82 92.2 L122.62 95"/>
<path d="M119.82 92.47 L122.62 95.27"/>
<path d="M119.82 92.74 L122.62 95.54"/>
<path d="M119.82 93.01 L122.62 95.81"/>
<path d="M119.82 93.28 L122.49 95.95"/>
<path d="M119.82 93.55 L122.22 95.95"/>
<path d="M119.82 93.82 L121.95 95.95"/>
<path d="M119.82 94.09 L121.68 95.95"/>
<path d="M119.82 94.36 L121.41 95.95"/>
<path d="M119.82 94.63 L121.14 95.95"/>
<path d="M119.82 94.9 L120.87 95.95"/>
<path d="M119.82 95.17 L120.6 95.95"/>
<path d="M119.82 95.44 L120.33 95.95"/>
<path d="M119.82 95.71 L120.06 95.95"/>
<path d="M127.31 91.78 L127.04 92.02 L127.28 92.28 L127.54 92.04 L127.31 91.78"/>
<path d="M127.45 93.79 L127.19 94.02 L126.96 93.76 L127.22 93.53 L127.45 93.79 L127.43 94.29 L126.9 94.76"/>
<path d="M127.46 91.87 L127.2 92.11 L127.44 92.37 L127.7 92.13 L127.46 91.87"/>
<path d="M127.61 93.88 L127.35 94.11 L127.11 93.85 L127.37 93.62 L127.61 93.88 L127.58 94.38 L127.06 94.85"/>
<path d="M127.62 91.96 L127.36 92.2 L127.59 92.46 L127.85 92.22 L127.62 91.96"/>
<path d="M127.77 93.97 L127.5 94.2 L127.27 93.94 L127.53 93.71 L127.77 93.97 L127.74 94.47 L127.22 94.94"/>
<path d="M127.38 92.11 L127.65 92.38"/>
<path d="M127.11 92.11 L127.65 92.65"/>
<path d="M127.11 92.38 L127.65 92.92"/>
<path d="M127.11 92.65 L127.65 93.19"/>
<path d="M127.11 92.92 L127.65 93.46"/>
<path d="M127.11 93.19 L127.65 93.73"/>
<path d="M127.11 93.46 L127.65 94"/>
<path d="M127.11 93.73 L127.65 94.27"/>
<path d="M127.11 94 L127.65 94.54"/>
<path d="M127.11 94.27 L127.45 94.61"/>
<path d="M127.11 94.54 L127.18 94.61"/>
<path d="M139.2 89.79 L139.44 90.06 L139.7 89.82 L139.46 89.56 L139.2 89.79"/>
<path d="M139.37 91.55 L139.21 95.05"/>
<path d="M139.35 89.88 L139.59 90.15 L139.85 89.91 L139.62 89.65 L139.35 89.88"/>
<path d="M139.52 91.64 L139.36 95.14"/>
<path d="M139.51 89.97 L139.75 90.24 L140.01 90 L139.77 89.74 L139.51 89.97"/>
<path d="M139.68 91.73 L139.52 95.23"/>
<path d="M139.54 90.09 L139.81 90.36"/>
<path d="M139.39 90.21 L139.81 90.63"/>
<path d="M139.39 90.48 L139.81 90.9"/>
<path d="M139.39 90.75 L139.81 91.17"/>
<path d="M139.39 91.02 L139.81 91.44"/>
<path d="M139.39 91.29 L139.81 91.71"/>
<path d="M139.39 91.56 L139.81 91.98"/>
<path d="M139.39 91.83 L139.81 92.25"/>
<path d="M139.39 92.1 L139.81 92.52"/>
<path d="M139.39 92.37 L139.81 92.79"/>
<path d="M139.39 92.64 L139.81 93.06"/>
<path d="M139.39 92.91 L139.81 93.33"/>
<path d="M139.39 93.18 L139.81 93.6"/>
<path d="M139.39 93.45 L139.81 93.87"/>
<path d="M139.39 93.72 L139.81 94.14"/>
<path d="M139.39 93.99 L139.81 94.41"/>
<path d="M139.39 94.26 L139.81 94.68"/>
<path d="M139.39 94.53 L139.56 94.7"/>
<path d="M145.53 89.71 L145.25 93.95 L145.45 94.71 L145.93 95 L146.43 95.03"/>
<path d="M144.67 91.41 L146.41 91.53"/>
<path d="M145.69 89.8 L145.41 94.04 L145.61 94.8 L146.09 95.09 L146.59 95.12"/>
<path d="M144.82 91.5 L146.57 91.62"/>
<path d="M145.84 89.89 L145.56 94.13 L145.76 94.89 L146.24 95.18 L146.74 95.21"/>
<path d="M144.98 91.59 L146.73 91.71"/>
<path d="M146.17 90.23 L146.44 90.5"/>
<path d="M145.9 90.23 L146.44 90.77"/>
<path d="M145.63 90.23 L146.44 91.04"/>
<path d="M145.36 90.23 L146.44 91.31"/>
<path d="M145.09 90.23 L146.44 91.58"/>
<path d="M144.97 90.37 L146.44 91.85"/>
<path d="M144.97 90.64 L146.44 92.12"/>
<path d="M144.97 90.91 L146.44 92.39"/>
<path d="M144.97 91.18 L146.44 92.66"/>
<path d="M144.97 91.45 L146.44 92.93"/>
<path d="M144.97 91.72 L146.44 93.2"/>
<path d="M144.97 91.99 L146.44 93.47"/>
<path d="M144.97 92.26 L146.44 93.74"/>
<path d="M144.97 92.53 L146.44 94.01"/>
<path d="M144.97 92.8 L146.44 94.28"/>
<path d="M144.97 93.07 L146.44 94.55"/>
<path d="M144.97 93.34 L146.32 94.7"/>
<path d="M144.97 93.61 L146.05 94.7"/>
<path d="M144.97 93.88 L145.78 94.7"/>
<path d="M144.97 94.15 L145.51 94.7"/>
<path d="M144.97 94.42 L145.24 94.7"/>
<path d="M144.97 94.69 L144.97 94.7"/>
<path d="M156.15 89.38 L155.68 94.6"/>
<path d="M155.93 91.86 L156.47 91.41 L156.99 91.21 L157.74 91.28 L158.21 91.57 L158.67 92.11 L158.85 92.88 L158.8 93.38 L158.49 94.1 L157.94 94.55 L157.42 94.76 L156.68 94.69 L156.2 94.4 L155.75 93.86"/>
<path d="M156.31 89.47 L155.84 94.69"/>
<path d="M156.08 91.95 L156.63 91.5 L157.15 91.3 L157.89 91.37 L158.37 91.66 L158.82 92.2 L159 92.97 L158.96 93.47 L158.64 94.19 L158.1 94.64 L157.58 94.85 L156.83 94.78 L156.36 94.49 L155.91 93.95"/>
<path d="M156.46 89.56 L155.99 94.78"/>
<path d="M156.24 92.04 L156.78 91.59 L157.3 91.39 L158.05 91.46 L158.52 91.75 L158.98 92.29 L159.16 93.06 L159.11 93.56 L158.8 94.28 L158.26 94.73 L157.74 94.94 L156.99 94.87 L156.51 94.58 L156.06 94.04"/>
<path d="M158.48 89.9 L158.75 90.17"/>
<path d="M158.21 89.9 L158.75 90.44"/>
<path d="M157.94 89.9 L158.75 90.71"/>
<path d="M157.67 89.9 L158.75 90.98"/>
<path d="M157.4 89.9 L158.75 91.25"/>
<path d="M157.13 89.9 L158.75 91.52"/>
<path d="M156.86 89.9 L158.75 91.79"/>
<path d="M156.59 89.9 L158.75 92.06"/>
<path d="M156.32 89.9 L158.75 92.33"/>
<path d="M156.09 89.94 L158.75 92.6"/>
<path d="M156.09 90.21 L158.75 92.87"/>
<path d="M156.09 90.48 L158.75 93.14"/>
<path d="M156.09 90.75 L158.75 93.41"/>
<path d="M156.09 91.02 L158.75 93.68"/>
<path d="M156.09 91.29 L158.75 93.95"/>
<path d="M156.09 91.56 L158.75 94.22"/>
<path d="M156.09 91.83 L158.68 94.42"/>
<path d="M156.09 92.1 L158.41 94.42"/>
<path d="M156.09 92.37 L158.14 94.42"/>
<path d="M156.09 92.64 L157.87 94.42"/>
<path d="M156.09 92.91 L157.6 94.42"/>
<path d="M156.09 93.18 L157.33 94.42"/>
<path d="M156.09 93.45 L157.06 94.42"/>
<path d="M156.09 93.72 L156.79 94.42"/>
<path d="M156.09 93.99 L156.52 94.42"/>
<path d="M156.09 94.26 L156.25 94.42"/>
<path d="M163.54 89.76 L163.29 95"/>
<path d="M163.69 89.85 L163.45 95.09"/>
<path d="M163.85 89.94 L163.6 95.18"/>
<path d="M163.47 90.34 L163.68 90.54"/>
<path d="M163.47 90.61 L163.68 90.81"/>
<path d="M163.47 90.88 L163.68 91.08"/>
<path d="M163.47 91.15 L163.68 91.35"/>
<path d="M163.47 91.42 L163.68 91.62"/>
<path d="M163.47 91.69 L163.68 91.89"/>
<path d="M163.47 91.96 L163.68 92.16"/>
<path d="M163.47 92.23 L163.68 92.43"/>
<path d="M163.47 92.5 L163.68 92.7"/>
<path d="M163.47 92.77 L163.68 92.97"/>
<path d="M163.47 93.04 L163.68 93.24"/>
<path d="M163.47 93.31 L163.68 93.51"/>
<path d="M163.47 93.58 L163.68 93.78"/>
<path d="M163.47 93.85 L163.68 94.05"/>
<path d="M163.47 94.12 L163.68 94.32"/>
<path d="M163.47 94.39 L163.68 94.59"/>
<path d="M163.47 94.66 L163.49 94.68"/>
<path d="M169.25 91.29 L168.73 91.51 L168.2 91.98 L167.91 92.71 L167.88 93.21 L168.08 93.97 L168.55 94.5 L169.03 94.78 L169.78 94.83 L170.3 94.61 L170.82 94.14 L171.12 93.41 L171.15 92.91 L170.95 92.15 L170.48 91.62 L169.99 91.34 L169.25 91.29"/>
<path d="M169.4 91.38 L168.89 91.6 L168.36 92.07 L168.07 92.8 L168.03 93.3 L168.24 94.06 L168.71 94.59 L169.19 94.87 L169.94 94.92 L170.45 94.7 L170.98 94.23 L171.28 93.5 L171.31 93 L171.1 92.24 L170.63 91.71 L170.15 91.43 L169.4 91.38"/>
<path d="M169.56 91.47 L169.04 91.69 L168.52 92.16 L168.22 92.89 L168.19 93.39 L168.39 94.15 L168.86 94.68 L169.35 94.96 L170.09 95.01 L170.61 94.79 L171.14 94.32 L171.43 93.59 L171.46 93.09 L171.26 92.33 L170.79 91.8 L170.31 91.52 L169.56 91.47"/>
<path d="M170.77 91.67 L171.04 91.94"/>
<path d="M170.5 91.67 L171.04 92.21"/>
<path d="M170.23 91.67 L171.04 92.48"/>
<path d="M169.96 91.67 L171.04 92.75"/>
<path d="M169.69 91.67 L171.04 93.02"/>
<path d="M169.42 91.67 L171.04 93.29"/>
<path d="M169.15 91.67 L171.04 93.56"/>
<path d="M168.88 91.67 L171.04 93.83"/>
<path d="M168.61 91.67 L171.04 94.1"/>
<path d="M168.34 91.67 L171.04 94.37"/>
<path d="M168.3 91.89 L171.04 94.64"/>
<path d="M168.3 92.16 L170.77 94.64"/>
<path d="M168.3 92.43 L170.5 94.64"/>
<path d="M168.3 92.7 L170.23 94.64"/>
<path d="M168.3 92.97 L169.96 94.64"/>
<path d="M168.3 93.24 L169.69 94.64"/>
<path d="M168.3 93.51 L169.42 94.64"/>
<path d="M168.3 93.78 L169.15 94.64"/>
<path d="M168.3 94.05 L168.88 94.64"/>
<path d="M168.3 94.32 L168.61 94.64"/>
<path d="M168.3 94.59 L168.34 94.64"/>
<path d="M175.29 91.38 L174.8 91.59 L174.29 92.02 L174 92.72 L173.96 93.19 L174.15 93.92 L174.59 94.43 L175.04 94.7 L175.75 94.76 L176.25 94.56 L176.76 94.12 L177.05 93.43 L177.08 92.95 L176.9 92.22 L176.46 91.71 L176.01 91.44 L175.29 91.38"/>
<path d="M175.45 91.47 L174.96 91.68 L174.45 92.11 L174.16 92.81 L174.12 93.28 L174.3 94.01 L174.74 94.52 L175.2 94.79 L175.91 94.85 L176.4 94.65 L176.91 94.21 L177.2 93.52 L177.24 93.04 L177.06 92.31 L176.62 91.8 L176.16 91.53 L175.45 91.47"/>
<path d="M175.61 91.56 L175.11 91.77 L174.6 92.2 L174.31 92.9 L174.28 93.37 L174.46 94.1 L174.9 94.61 L175.35 94.88 L176.07 94.94 L176.56 94.74 L177.07 94.3 L177.36 93.61 L177.4 93.13 L177.21 92.4 L176.77 91.89 L176.32 91.62 L175.61 91.56"/>
<path d="M176.72 91.74 L176.99 92.01"/>
<path d="M176.45 91.74 L176.99 92.28"/>
<path d="M176.18 91.74 L176.99 92.55"/>
<path d="M175.91 91.74 L176.99 92.82"/>
<path d="M175.64 91.74 L176.99 93.09"/>
<path d="M175.37 91.74 L176.99 93.36"/>
<path d="M175.1 91.74 L176.99 93.63"/>
<path d="M174.83 91.74 L176.99 93.9"/>
<path d="M174.56 91.74 L176.99 94.17"/>
<path d="M174.37 91.82 L176.99 94.44"/>
<path d="M174.37 92.09 L176.86 94.58"/>
<path d="M174.37 92.36 L176.59 94.58"/>
<path d="M174.37 92.63 L176.32 94.58"/>
<path d="M174.37 92.9 L176.05 94.58"/>
<path d="M174.37 93.17 L175.78 94.58"/>
<path d="M174.37 93.44 L175.51 94.58"/>
<path d="M174.37 93.71 L175.24 94.58"/>
<path d="M174.37 93.98 L174.97 94.58"/>
<path d="M174.37 94.25 L174.7 94.58"/>
<path d="M174.37 94.52 L174.43 94.58"/>
<path d="M121.37 95.74 L121.19 99.78 L121.4 100.5 L121.86 100.76 L122.34 100.78"/>
<path d="M120.59 97.37 L122.25 97.44"/>
<path d="M121.53 95.83 L121.35 99.87 L121.55 100.59 L122.02 100.85 L122.49 100.87"/>
<path d="M120.74 97.46 L122.41 97.53"/>
<path d="M121.69 95.92 L121.5 99.96 L121.71 100.68 L122.18 100.94 L122.65 100.96"/>
<path d="M120.9 97.55 L122.56 97.62"/>
<path d="M122.08 96.23 L122.35 96.5"/>
<path d="M121.81 96.23 L122.35 96.77"/>
<path d="M121.54 96.23 L122.35 97.04"/>
<path d="M121.27 96.23 L122.35 97.31"/>
<path d="M121 96.23 L122.35 97.58"/>
<path d="M120.88 96.38 L122.35 97.85"/>
<path d="M120.88 96.65 L122.35 98.12"/>
<path d="M120.88 96.92 L122.35 98.39"/>
<path d="M120.88 97.19 L122.35 98.66"/>
<path d="M120.88 97.46 L122.35 98.93"/>
<path d="M120.88 97.73 L122.35 99.2"/>
<path d="M120.88 98 L122.35 99.47"/>
<path d="M120.88 98.27 L122.35 99.74"/>
<path d="M120.88 98.54 L122.35 100.01"/>
<path d="M120.88 98.81 L122.35 100.28"/>
<path d="M120.88 99.08 L122.27 100.47"/>
<path d="M120.88 99.35 L122 100.47"/>
<path d="M120.88 99.62 L121.73 100.47"/>
<path d="M120.88 99.89 L121.46 100.47"/>
<path d="M120.88 100.16 L121.19 100.47"/>
<path d="M120.88 100.43 L120.92 100.47"/>
<path d="M126.25 95.49 L125.85 100.72"/>
<path d="M126.04 98.23 L126.84 97.54 L127.36 97.33 L128.11 97.38 L128.59 97.67 L128.78 98.43 L128.59 100.93"/>
<path d="M126.4 95.58 L126.01 100.81"/>
<path d="M126.2 98.32 L127 97.63 L127.52 97.42 L128.26 97.47 L128.74 97.76 L128.94 98.52 L128.75 101.02"/>
<path d="M126.56 95.67 L126.17 100.9"/>
<path d="M126.35 98.41 L127.16 97.72 L127.67 97.51 L128.42 97.56 L128.9 97.85 L129.09 98.61 L128.91 101.11"/>
<path d="M128.43 96.01 L128.7 96.28"/>
<path d="M128.16 96.01 L128.7 96.55"/>
<path d="M127.89 96.01 L128.7 96.82"/>
<path d="M127.62 96.01 L128.7 97.09"/>
<path d="M127.35 96.01 L128.7 97.36"/>
<path d="M127.08 96.01 L128.7 97.63"/>
<path d="M126.81 96.01 L128.7 97.9"/>
<path d="M126.54 96.01 L128.7 98.17"/>
<path d="M126.27 96.01 L128.7 98.44"/>
<path d="M126.24 96.26 L128.7 98.71"/>
<path d="M126.24 96.53 L128.7 98.98"/>
<path d="M126.24 96.8 L128.7 99.25"/>
<path d="M126.24 97.07 L128.7 99.52"/>
<path d="M126.24 97.34 L128.7 99.79"/>
<path d="M126.24 97.61 L128.7 100.06"/>
<path d="M126.24 97.88 L128.7 100.33"/>
<path d="M126.24 98.15 L128.68 100.58"/>
<path d="M126.24 98.42 L128.41 100.58"/>
<path d="M126.24 98.69 L128.14 100.58"/>
<path d="M126.24 98.96 L127.87 100.58"/>
<path d="M126.24 99.23 L127.6 100.58"/>
<path d="M126.24 99.5 L127.33 100.58"/>
<path d="M126.24 99.77 L127.06 100.58"/>
<path d="M126.24 100.04 L126.79 100.58"/>
<path d="M126.24 100.31 L126.52 100.58"/>
<path d="M126.24 100.58 L126.25 100.58"/>
<path d="M133.14 97.36 L132.62 97.57 L132.09 98.03 L131.78 98.76 L131.74 99.25 L131.92 100.02 L132.38 100.56 L132.86 100.85 L133.6 100.91 L134.12 100.7 L134.66 100.24 L134.97 99.52 L135.01 99.02 L134.82 98.25 L134.37 97.71 L133.89 97.42 L133.14 97.36"/>
<path d="M133.3 97.45 L132.78 97.66 L132.24 98.12 L131.93 98.85 L131.89 99.34 L132.08 100.11 L132.54 100.65 L133.01 100.94 L133.76 101 L134.28 100.79 L134.82 100.33 L135.13 99.61 L135.17 99.11 L134.98 98.34 L134.52 97.8 L134.05 97.51 L133.3 97.45"/>
<path d="M133.45 97.54 L132.94 97.75 L132.4 98.21 L132.09 98.94 L132.05 99.43 L132.23 100.2 L132.69 100.74 L133.17 101.03 L133.92 101.09 L134.43 100.88 L134.97 100.42 L135.28 99.7 L135.32 99.2 L135.14 98.43 L134.68 97.89 L134.2 97.6 L133.45 97.54"/>
<path d="M134.64 97.74 L134.91 98.01"/>
<path d="M134.37 97.74 L134.91 98.28"/>
<path d="M134.1 97.74 L134.91 98.55"/>
<path d="M133.83 97.74 L134.91 98.82"/>
<path d="M133.56 97.74 L134.91 99.09"/>
<path d="M133.29 97.74 L134.91 99.36"/>
<path d="M133.02 97.74 L134.91 99.63"/>
<path d="M132.75 97.74 L134.91 99.9"/>
<path d="M132.48 97.74 L134.91 100.17"/>
<path d="M132.21 97.74 L134.91 100.44"/>
<path d="M132.15 97.96 L134.91 100.71"/>
<path d="M132.15 98.23 L134.64 100.72"/>
<path d="M132.15 98.5 L134.37 100.72"/>
<path d="M132.15 98.77 L134.1 100.72"/>
<path d="M132.15 99.04 L133.83 100.72"/>
<path d="M132.15 99.31 L133.56 100.72"/>
<path d="M132.15 99.58 L133.29 100.72"/>
<path d="M132.15 99.85 L133.02 100.72"/>
<path d="M132.15 100.12 L132.75 100.72"/>
<path d="M132.15 100.39 L132.48 100.72"/>
<path d="M132.15 100.66 L132.21 100.72"/>
<path d="M138.14 97.46 L137.99 99.96 L138.2 100.72 L138.68 101 L139.43 101.04 L139.94 100.82 L140.73 100.12"/>
<path d="M140.88 97.62 L140.68 101.11"/>
<path d="M138.29 97.55 L138.15 100.05 L138.35 100.81 L138.84 101.09 L139.58 101.13 L140.1 100.91 L140.89 100.21"/>
<path d="M141.04 97.71 L140.83 101.2"/>
<path d="M138.45 97.64 L138.3 100.14 L138.51 100.9 L138.99 101.18 L139.74 101.22 L140.25 101 L141.05 100.3"/>
<path d="M141.19 97.8 L140.99 101.29"/>
<path d="M140.54 97.84 L140.81 98.11"/>
<path d="M140.27 97.84 L140.81 98.38"/>
<path d="M140 97.84 L140.81 98.65"/>
<path d="M139.73 97.84 L140.81 98.92"/>
<path d="M139.46 97.84 L140.81 99.19"/>
<path d="M139.19 97.84 L140.81 99.46"/>
<path d="M138.92 97.84 L140.81 99.73"/>
<path d="M138.65 97.84 L140.81 100"/>
<path d="M138.38 97.85 L140.81 100.27"/>
<path d="M138.38 98.12 L140.81 100.54"/>
<path d="M138.38 98.39 L140.81 100.81"/>
<path d="M138.38 98.66 L140.63 100.91"/>
<path d="M138.38 98.93 L140.36 100.91"/>
<path d="M138.38 99.2 L140.09 100.91"/>
<path d="M138.38 99.47 L139.82 100.91"/>
<path d="M138.38 99.74 L139.55 100.91"/>
<path d="M138.38 100.01 L139.28 100.91"/>
<path d="M138.38 100.28 L139.01 100.91"/>
<path d="M138.38 100.55 L138.74 100.91"/>
<path d="M138.38 100.82 L138.47 100.91"/>
<path d="M145.55 95.86 L145.24 100.09 L145.44 100.86 L145.92 101.15 L146.41 101.18"/>
<path d="M144.68 97.55 L146.42 97.68"/>
<path d="M145.71 95.95 L145.4 100.18 L145.59 100.95 L146.07 101.24 L146.57 101.27"/>
<path d="M144.83 97.64 L146.58 97.77"/>
<path d="M145.87 96.04 L145.55 100.27 L145.75 101.04 L146.23 101.33 L146.73 101.36"/>
<path d="M144.99 97.73 L146.73 97.86"/>
<path d="M146.17 96.38 L146.44 96.65"/>
<path d="M145.9 96.38 L146.44 96.92"/>
<path d="M145.63 96.38 L146.44 97.19"/>
<path d="M145.36 96.38 L146.44 97.46"/>
<path d="M145.09 96.38 L146.44 97.73"/>
<path d="M144.97 96.53 L146.44 98"/>
<path d="M144.97 96.8 L146.44 98.27"/>
<path d="M144.97 97.07 L146.44 98.54"/>
<path d="M144.97 97.34 L146.44 98.81"/>
<path d="M144.97 97.61 L146.44 99.08"/>
<path d="M144.97 97.88 L146.44 99.35"/>
<path d="M144.97 98.15 L146.44 99.62"/>
<path d="M144.97 98.42 L146.44 99.89"/>
<path d="M144.97 98.69 L146.44 100.16"/>
<path d="M144.97 98.96 L146.44 100.43"/>
<path d="M144.97 99.23 L146.44 100.7"/>
<path d="M144.97 99.5 L146.32 100.85"/>
<path d="M144.97 99.77 L146.05 100.85"/>
<path d="M144.97 100.04 L145.78 100.85"/>
<path d="M144.97 100.31 L145.51 100.85"/>
<path d="M144.97 100.58 L145.24 100.85"/>
<path d="M155.47 97.18 L156.22 100.74"/>
<path d="M157.46 97.32 L156.22 100.74"/>
<path d="M157.46 97.32 L158.22 100.88"/>
<path d="M159.46 97.46 L158.22 100.88"/>
<path d="M155.63 97.27 L156.38 100.83"/>
<path d="M157.62 97.41 L156.38 100.83"/>
<path d="M157.62 97.41 L158.37 100.97"/>
<path d="M159.61 97.55 L158.37 100.97"/>
<path d="M155.78 97.36 L156.54 100.92"/>
<path d="M157.78 97.5 L156.54 100.92"/>
<path d="M157.78 97.5 L158.53 101.06"/>
<path d="M159.77 97.64 L158.53 101.06"/>
<path d="M159.02 97.57 L159.29 97.84"/>
<path d="M158.75 97.57 L159.29 98.11"/>
<path d="M158.48 97.57 L159.29 98.38"/>
<path d="M158.21 97.57 L159.29 98.65"/>
<path d="M157.94 97.57 L159.29 98.92"/>
<path d="M157.67 97.57 L159.29 99.19"/>
<path d="M157.4 97.57 L159.29 99.46"/>
<path d="M157.13 97.57 L159.29 99.73"/>
<path d="M156.86 97.57 L159.29 100"/>
<path d="M156.59 97.57 L159.29 100.27"/>
<path d="M156.32 97.57 L159.29 100.54"/>
<path d="M156.05 97.57 L159.16 100.67"/>
<path d="M155.94 97.73 L158.89 100.67"/>
<path d="M155.94 98 L158.62 100.67"/>
<path d="M155.94 98.27 L158.35 100.67"/>
<path d="M155.94 98.54 L158.08 100.67"/>
<path d="M155.94 98.81 L157.81 100.67"/>
<path d="M155.94 99.08 L157.54 100.67"/>
<path d="M155.94 99.35 L157.27 100.67"/>
<path d="M155.94 99.62 L157 100.67"/>
<path d="M155.94 99.89 L156.73 100.67"/>
<path d="M155.94 100.16 L156.46 100.67"/>
<path d="M155.94 100.43 L156.19 100.67"/>
<path d="M162.31 95.73 L162.03 100.96"/>
<path d="M162.16 98.47 L162.95 97.76 L163.46 97.54 L164.21 97.58 L164.7 97.85 L164.91 98.62 L164.78 101.11"/>
<path d="M162.47 95.82 L162.19 101.05"/>
<path d="M162.32 98.56 L163.11 97.85 L163.62 97.63 L164.37 97.67 L164.85 97.94 L165.06 98.71 L164.93 101.2"/>
<path d="M162.62 95.91 L162.34 101.14"/>
<path d="M162.48 98.65 L163.26 97.94 L163.78 97.72 L164.52 97.76 L165.01 98.03 L165.22 98.8 L165.09 101.29"/>
<path d="M164.56 96.25 L164.83 96.52"/>
<path d="M164.29 96.25 L164.83 96.79"/>
<path d="M164.02 96.25 L164.83 97.06"/>
<path d="M163.75 96.25 L164.83 97.33"/>
<path d="M163.48 96.25 L164.83 97.6"/>
<path d="M163.21 96.25 L164.83 97.87"/>
<path d="M162.94 96.25 L164.83 98.14"/>
<path d="M162.67 96.25 L164.83 98.41"/>
<path d="M162.42 96.26 L164.83 98.68"/>
<path d="M162.42 96.53 L164.83 98.95"/>
<path d="M162.42 96.8 L164.83 99.22"/>
<path d="M162.42 97.07 L164.83 99.49"/>
<path d="M162.42 97.34 L164.83 99.76"/>
<path d="M162.42 97.61 L164.83 100.03"/>
<path d="M162.42 97.88 L164.83 100.3"/>
<path d="M162.42 98.15 L164.83 100.57"/>
<path d="M162.42 98.42 L164.77 100.77"/>
<path d="M162.42 98.69 L164.5 100.77"/>
<path d="M162.42 98.96 L164.23 100.77"/>
<path d="M162.42 99.23 L163.96 100.77"/>
<path d="M162.42 99.5 L163.69 100.77"/>
<path d="M162.42 99.77 L163.42 100.77"/>
<path d="M162.42 100.04 L163.15 100.77"/>
<path d="M162.42 100.31 L162.88 100.77"/>
<path d="M162.42 100.58 L162.61 100.77"/>
<path d="M167.98 97.44 L169.32 101"/>
<path d="M170.97 97.57 L169.32 101 L168.78 101.97 L168.26 102.45 L167.75 102.68 L167.5 102.67"/>
<path d="M168.13 97.53 L169.48 101.09"/>
<path d="M171.13 97.66 L169.48 101.09 L168.94 102.06 L168.42 102.54 L167.91 102.77 L167.66 102.76"/>
<path d="M168.29 97.62 L169.64 101.18"/>
<path d="M171.28 97.75 L169.64 101.18 L169.09 102.15 L168.57 102.63 L168.06 102.86 L167.81 102.85"/>
<path d="M170.58 97.95 L170.85 98.22"/>
<path d="M170.31 97.95 L170.85 98.49"/>
<path d="M170.04 97.95 L170.85 98.76"/>
<path d="M169.77 97.95 L170.85 99.03"/>
<path d="M169.5 97.95 L170.85 99.3"/>
<path d="M169.23 97.95 L170.85 99.57"/>
<path d="M168.96 97.95 L170.85 99.84"/>
<path d="M168.69 97.95 L170.85 100.11"/>
<path d="M168.42 97.95 L170.85 100.38"/>
<path d="M168.15 97.95 L170.85 100.65"/>
<path d="M167.93 98 L170.85 100.92"/>
<path d="M167.93 98.27 L170.85 101.19"/>
<path d="M167.93 98.54 L170.85 101.46"/>
<path d="M167.93 98.81 L170.85 101.73"/>
<path d="M167.93 99.08 L170.85 102"/>
<path d="M167.93 99.35 L170.85 102.27"/>
<path d="M167.93 99.62 L170.66 102.35"/>
<path d="M167.93 99.89 L170.39 102.35"/>
<path d="M167.93 100.16 L170.12 102.35"/>
<path d="M167.93 100.43 L169.85 102.35"/>
<path d="M167.93 100.7 L169.58 102.35"/>
<path d="M167.93 100.97 L169.31 102.35"/>
<path d="M167.93 101.24 L169.04 102.35"/>
<path d="M167.93 101.51 L168.77 102.35"/>
<path d="M167.93 101.78 L168.5 102.35"/>
<path d="M167.93 102.05 L168.23 102.35"/>
<path d="M167.93 102.32 L167.96 102.35"/>
<path d="M175.47 97.97 L175.22 98.2 L175.45 98.44 L175.7 98.22 L175.47 97.97"/>
<path d="M175.63 99.88 L175.38 100.11 L175.15 99.86 L175.4 99.63 L175.63 99.88 L175.61 100.35 L175.11 100.81"/>
<path d="M175.63 98.06 L175.38 98.29 L175.61 98.53 L175.86 98.31 L175.63 98.06"/>
<path d="M175.78 99.97 L175.54 100.2 L175.31 99.95 L175.56 99.72 L175.78 99.97 L175.76 100.44 L175.27 100.9"/>
<path d="M175.78 98.15 L175.54 98.38 L175.76 98.62 L176.01 98.4 L175.78 98.15"/>
<path d="M175.94 100.06 L175.69 100.29 L175.47 100.04 L175.71 99.81 L175.94 100.06 L175.92 100.53 L175.42 100.99"/>
<path d="M175.54 98.29 L175.81 98.56"/>
<path d="M175.32 98.33 L175.81 98.83"/>
<path d="M175.32 98.6 L175.81 99.1"/>
<path d="M175.32 98.87 L175.81 99.37"/>
<path d="M175.32 99.14 L175.81 99.64"/>
<path d="M175.32 99.41 L175.81 99.91"/>
<path d="M175.32 99.68 L175.81 100.18"/>
<path d="M175.32 99.95 L175.81 100.45"/>
<path d="M175.32 100.22 L175.77 100.67"/>
<path d="M175.32 100.49 L175.5 100.67"/>
<path d="M125.87 105.03 L128.65 105.15 L128.67 104.69 L128.45 104.21 L128.23 103.97 L127.78 103.72 L127.08 103.69 L126.61 103.9 L126.13 104.35 L125.87 105.03 L125.85 105.5 L126.05 106.2 L126.5 106.68 L126.95 106.93 L127.64 106.96 L128.12 106.75 L128.6 106.31"/>
<path d="M126.03 105.12 L128.8 105.24 L128.82 104.78 L128.61 104.3 L128.39 104.06 L127.94 103.81 L127.24 103.78 L126.77 103.99 L126.29 104.44 L126.03 105.12 L126.01 105.59 L126.21 106.29 L126.65 106.77 L127.11 107.02 L127.8 107.05 L128.27 106.84 L128.75 106.4"/>
<path d="M126.18 105.21 L128.96 105.33 L128.98 104.87 L128.77 104.39 L128.54 104.15 L128.09 103.9 L127.4 103.87 L126.92 104.08 L126.44 104.53 L126.18 105.21 L126.16 105.68 L126.36 106.38 L126.81 106.86 L127.26 107.11 L127.96 107.14 L128.43 106.93 L128.91 106.49"/>
<path d="M128.33 104.04 L128.6 104.31"/>
<path d="M128.06 104.04 L128.6 104.58"/>
<path d="M127.79 104.04 L128.6 104.85"/>
<path d="M127.52 104.04 L128.6 105.12"/>
<path d="M127.25 104.04 L128.6 105.39"/>
<path d="M126.98 104.04 L128.6 105.66"/>
<path d="M126.71 104.04 L128.6 105.93"/>
<path d="M126.44 104.04 L128.6 106.2"/>
<path d="M126.23 104.11 L128.6 106.47"/>
<path d="M126.23 104.38 L128.6 106.74"/>
<path d="M126.23 104.65 L128.37 106.79"/>
<path d="M126.23 104.92 L128.1 106.79"/>
<path d="M126.23 105.19 L127.83 106.79"/>
<path d="M126.23 105.46 L127.56 106.79"/>
<path d="M126.23 105.73 L127.29 106.79"/>
<path d="M126.23 106 L127.02 106.79"/>
<path d="M126.23 106.27 L126.75 106.79"/>
<path d="M126.23 106.54 L126.48 106.79"/>
<path d="M139.19 101.68 L139.43 101.94 L139.69 101.71 L139.45 101.45 L139.19 101.68"/>
<path d="M139.36 103.44 L139.22 106.94"/>
<path d="M139.35 101.77 L139.58 102.03 L139.84 101.8 L139.61 101.54 L139.35 101.77"/>
<path d="M139.52 103.53 L139.37 107.03"/>
<path d="M139.5 101.86 L139.74 102.12 L140 101.89 L139.76 101.63 L139.5 101.86"/>
<path d="M139.68 103.62 L139.53 107.12"/>
<path d="M139.53 101.97 L139.8 102.24"/>
<path d="M139.39 102.1 L139.8 102.51"/>
<path d="M139.39 102.37 L139.8 102.78"/>
<path d="M139.39 102.64 L139.8 103.05"/>
<path d="M139.39 102.91 L139.8 103.32"/>
<path d="M139.39 103.18 L139.8 103.59"/>
<path d="M139.39 103.45 L139.8 103.86"/>
<path d="M139.39 103.72 L139.8 104.13"/>
<path d="M139.39 103.99 L139.8 104.4"/>
<path d="M139.39 104.26 L139.8 104.67"/>
<path d="M139.39 104.53 L139.8 104.94"/>
<path d="M139.39 104.8 L139.8 105.21"/>
<path d="M139.39 105.07 L139.8 105.48"/>
<path d="M139.39 105.34 L139.8 105.75"/>
<path d="M139.39 105.61 L139.8 106.02"/>
<path d="M139.39 105.88 L139.8 106.29"/>
<path d="M139.39 106.15 L139.8 106.56"/>
<path d="M139.39 106.42 L139.56 106.59"/>
<path d="M146.86 104.32 L146.65 103.81 L145.91 103.51 L145.17 103.46 L144.4 103.66 L144.12 104.14 L144.34 104.66 L144.82 104.94 L146.05 105.27 L146.53 105.55 L146.75 106.07 L146.73 106.32 L146.45 106.8 L145.68 107 L144.94 106.95 L144.2 106.65 L143.99 106.14"/>
<path d="M147.02 104.41 L146.8 103.9 L146.07 103.6 L145.32 103.55 L144.56 103.75 L144.28 104.23 L144.49 104.75 L144.97 105.03 L146.2 105.36 L146.69 105.64 L146.9 106.16 L146.89 106.41 L146.6 106.89 L145.84 107.09 L145.09 107.04 L144.36 106.74 L144.14 106.23"/>
<path d="M147.17 104.5 L146.96 103.99 L146.23 103.69 L145.48 103.64 L144.71 103.84 L144.43 104.32 L144.65 104.84 L145.13 105.12 L146.36 105.45 L146.84 105.73 L147.06 106.25 L147.04 106.5 L146.76 106.98 L145.99 107.18 L145.25 107.13 L144.52 106.83 L144.3 106.32"/>
<path d="M146.52 103.83 L146.79 104.1"/>
<path d="M146.25 103.83 L146.79 104.37"/>
<path d="M145.98 103.83 L146.79 104.64"/>
<path d="M145.71 103.83 L146.79 104.91"/>
<path d="M145.44 103.83 L146.79 105.18"/>
<path d="M145.17 103.83 L146.79 105.45"/>
<path d="M144.9 103.83 L146.79 105.72"/>
<path d="M144.63 103.83 L146.79 105.99"/>
<path d="M144.37 103.85 L146.79 106.26"/>
<path d="M144.37 104.12 L146.79 106.53"/>
<path d="M144.37 104.39 L146.79 106.8"/>
<path d="M144.37 104.66 L146.52 106.81"/>
<path d="M144.37 104.93 L146.25 106.81"/>
<path d="M144.37 105.2 L145.98 106.81"/>
<path d="M144.37 105.47 L145.71 106.81"/>
<path d="M144.37 105.74 L145.44 106.81"/>
<path d="M144.37 106.01 L145.17 106.81"/>
<path d="M144.37 106.28 L144.9 106.81"/>
<path d="M144.37 106.55 L144.63 106.81"/>
<path d="M155.5 103.34 L156.18 106.91"/>
<path d="M157.49 103.52 L156.18 106.91"/>
<path d="M157.49 103.52 L158.17 107.09"/>
<path d="M159.48 103.7 L158.17 107.09"/>
<path d="M155.66 103.43 L156.33 107"/>
<path d="M157.65 103.61 L156.33 107"/>
<path d="M157.65 103.61 L158.32 107.18"/>
<path d="M159.64 103.79 L158.32 107.18"/>
<path d="M155.81 103.52 L156.49 107.09"/>
<path d="M157.8 103.7 L156.49 107.09"/>
<path d="M157.8 103.7 L158.48 107.27"/>
<path d="M159.79 103.88 L158.48 107.27"/>
<path d="M159.05 103.73 L159.32 104"/>
<path d="M158.78 103.73 L159.32 104.27"/>
<path d="M158.51 103.73 L159.32 104.54"/>
<path d="M158.24 103.73 L159.32 104.81"/>
<path d="M157.97 103.73 L159.32 105.08"/>
<path d="M157.7 103.73 L159.32 105.35"/>
<path d="M157.43 103.73 L159.32 105.62"/>
<path d="M157.16 103.73 L159.32 105.89"/>
<path d="M156.89 103.73 L159.32 106.16"/>
<path d="M156.62 103.73 L159.32 106.43"/>
<path d="M156.35 103.73 L159.32 106.7"/>
<path d="M156.08 103.73 L159.23 106.88"/>
<path d="M155.97 103.9 L158.96 106.88"/>
<path d="M155.97 104.17 L158.69 106.88"/>
<path d="M155.97 104.44 L158.42 106.88"/>
<path d="M155.97 104.71 L158.15 106.88"/>
<path d="M155.97 104.98 L157.88 106.88"/>
<path d="M155.97 105.25 L157.61 106.88"/>
<path d="M155.97 105.52 L157.34 106.88"/>
<path d="M155.97 105.79 L157.07 106.88"/>
<path d="M155.97 106.06 L156.8 106.88"/>
<path d="M155.97 106.33 L156.53 106.88"/>
<path d="M155.97 106.6 L156.26 106.88"/>
<path d="M155.97 106.87 L155.99 106.88"/>
<path d="M163.29 101.79 L163.52 102.05 L163.78 101.81 L163.55 101.55 L163.29 101.79"/>
<path d="M163.46 103.55 L163.3 107.04"/>
<path d="M163.44 101.88 L163.68 102.14 L163.94 101.9 L163.7 101.64 L163.44 101.88"/>
<path d="M163.61 103.64 L163.45 107.13"/>
<path d="M163.6 101.97 L163.84 102.23 L164.1 101.99 L163.86 101.73 L163.6 101.97"/>
<path d="M163.77 103.73 L163.61 107.22"/>
<path d="M163.63 102.08 L163.9 102.35"/>
<path d="M163.48 102.2 L163.9 102.62"/>
<path d="M163.48 102.47 L163.9 102.89"/>
<path d="M163.48 102.74 L163.9 103.16"/>
<path d="M163.48 103.01 L163.9 103.43"/>
<path d="M163.48 103.28 L163.9 103.7"/>
<path d="M163.48 103.55 L163.9 103.97"/>
<path d="M163.48 103.82 L163.9 104.24"/>
<path d="M163.48 104.09 L163.9 104.51"/>
<path d="M163.48 104.36 L163.9 104.78"/>
<path d="M163.48 104.63 L163.9 105.05"/>
<path d="M163.48 104.9 L163.9 105.32"/>
<path d="M163.48 105.17 L163.9 105.59"/>
<path d="M163.48 105.44 L163.9 105.86"/>
<path d="M163.48 105.71 L163.9 106.13"/>
<path d="M163.48 105.98 L163.9 106.4"/>
<path d="M163.48 106.25 L163.9 106.67"/>
<path d="M163.48 106.52 L163.65 106.69"/>
<path d="M169.62 101.9 L169.34 105.83 L169.52 106.54 L169.96 106.81 L170.43 106.84"/>
<path d="M168.81 103.47 L170.43 103.59"/>
<path d="M169.78 101.99 L169.49 105.92 L169.67 106.63 L170.12 106.9 L170.58 106.93"/>
<path d="M168.97 103.56 L170.58 103.68"/>
<path d="M169.93 102.08 L169.65 106.01 L169.83 106.72 L170.28 106.99 L170.74 107.02"/>
<path d="M169.12 103.65 L170.74 103.77"/>
<path d="M170.18 102.39 L170.45 102.66"/>
<path d="M169.91 102.39 L170.45 102.93"/>
<path d="M169.64 102.39 L170.45 103.2"/>
<path d="M169.37 102.39 L170.45 103.47"/>
<path d="M169.1 102.39 L170.45 103.74"/>
<path d="M169.1 102.65 L170.45 104.01"/>
<path d="M169.1 102.92 L170.45 104.28"/>
<path d="M169.1 103.19 L170.45 104.55"/>
<path d="M169.1 103.46 L170.45 104.82"/>
<path d="M169.1 103.73 L170.45 105.09"/>
<path d="M169.1 104 L170.45 105.36"/>
<path d="M169.1 104.27 L170.45 105.63"/>
<path d="M169.1 104.54 L170.45 105.9"/>
<path d="M169.1 104.81 L170.45 106.17"/>
<path d="M169.1 105.08 L170.45 106.44"/>
<path d="M169.1 105.35 L170.28 106.53"/>
<path d="M169.1 105.62 L170.01 106.53"/>
<path d="M169.1 105.89 L169.74 106.53"/>
<path d="M169.1 106.16 L169.47 106.53"/>
<path d="M169.1 106.43 L169.2 106.53"/>
</g>
</svg>
